<svg width="128" height="128" viewBox="0 0 128 128" fill="none" xmlns="http://www.w3.org/2000/svg">
<g clip-path="url(#clip0_14951_6764)">
<path d="M34.4167 94.43C36.974 93.7435 39.7847 95.2819 40.6912 97.8642L40.6879 97.8651C41.5794 100.405 40.2999 103.005 37.8255 103.745L37.8278 103.752L11.3882 110.85C8.83089 111.536 6.02016 109.998 5.11369 107.415C4.20723 104.833 5.54683 102.181 8.10413 101.494C8.22809 101.461 8.34914 101.438 8.47315 101.416L8.48244 101.414C8.26429 101.138 8.08807 100.829 7.96798 100.487C7.41833 98.9208 8.22892 97.3101 9.78285 96.8929C10.4898 96.7032 11.2283 96.7965 11.8759 97.0977C12.5725 94.6646 14.4534 92.691 17.1182 91.9756C20.731 91.0057 24.641 92.6593 26.7288 95.774C27.0115 94.9746 27.6606 94.336 28.5565 94.0955C29.9834 93.7124 31.5359 94.4691 32.2068 95.8116C32.7608 95.1661 33.5111 94.6732 34.4167 94.43Z" fill="#BCC1D2"/>
<path d="M35.6149 93.2599C38.1722 92.5733 40.983 94.1117 41.8894 96.694L41.8862 96.6949C42.7776 99.2345 41.4982 101.835 39.0237 102.575L39.0261 102.581L12.5864 109.679C10.0291 110.366 7.2184 108.828 6.31193 106.245C5.40547 103.663 6.74507 101.01 9.30238 100.324C9.42633 100.291 9.54739 100.268 9.67139 100.246L9.68068 100.244C9.46253 99.9676 9.28632 99.6586 9.16622 99.3165C8.61657 97.7506 9.42716 96.14 10.9811 95.7228C11.688 95.533 12.4266 95.6263 13.0742 95.9276C13.7707 93.4944 15.6517 91.5208 18.3165 90.8054C21.9293 89.8355 25.8392 91.4892 27.9271 94.6038C28.2097 93.8044 28.8589 93.1658 29.7548 92.9253C31.1816 92.5422 32.7341 93.2989 33.405 94.6415C33.9591 93.996 34.7093 93.503 35.6149 93.2599Z" fill="#EDEEF3"/>
<rect y="39.9197" width="108" height="82" rx="15" transform="rotate(-15 0 39.9197)" fill="#B9BED0"/>
<path d="M7.22848 51.4413C5.08435 43.4393 9.83309 35.2142 17.8351 33.0701L93.1773 12.8822C101.179 10.7381 109.404 15.4868 111.548 23.4888L125.007 73.717C127.151 81.719 122.402 89.944 114.4 92.0881L39.0582 112.276C31.0562 114.42 22.8312 109.671 20.6871 101.669L7.22848 51.4413Z" fill="#EDEEF3"/>
<path d="M7.22848 51.4413C5.08435 43.4393 9.83309 35.2142 17.8351 33.0701L93.1773 12.8822C101.179 10.7381 109.404 15.4868 111.548 23.4888L7.22848 51.4413Z" fill="#D4D8E2"/>
<circle cx="63.5713" cy="54.4286" r="12.7139" transform="rotate(-15 63.5713 54.4286)" fill="#BCC1D2"/>
<circle cx="64.5381" cy="53.5712" r="12.7139" transform="rotate(-15 64.5381 53.5712)" fill="#D4D8E2"/>
<path d="M67.9655 51.1587C69.4526 51.5572 69.9507 53.4161 68.8621 54.5048L64.9137 58.4532C63.8251 59.5418 61.9661 59.0437 61.5676 57.5566L60.1225 52.163C59.724 50.6759 61.0848 49.3151 62.5719 49.7135L67.9655 51.1587Z" fill="#BCC1D2"/>
<path d="M68.3742 50.4512C69.8613 50.8497 70.3594 52.7086 69.2708 53.7973L65.3224 57.7456C64.2337 58.8343 62.3748 58.3362 61.9763 56.8491L60.5311 51.4555C60.1327 49.9684 61.4935 48.6075 62.9806 49.006L68.3742 50.4512Z" fill="#F3F4F7"/>
<path d="M37.5343 80.3899C37.7479 80.3326 37.9679 80.4614 38.0258 80.6775L43.4781 101.026C43.536 101.242 43.4098 101.463 43.1963 101.521L42.4229 101.728C42.2093 101.785 41.9892 101.656 41.9313 101.44L36.4791 81.092C36.4212 80.8759 36.5473 80.6543 36.7609 80.5971L37.5343 80.3899Z" fill="#B9BED0"/>
<path d="M68.4698 72.1007C68.6834 72.0435 68.9035 72.1723 68.9614 72.3884L74.4136 92.7365C74.4716 92.9527 74.3454 93.1742 74.1318 93.2315L73.3584 93.4387C73.1448 93.4959 72.9248 93.3671 72.8669 93.151L67.4146 72.8029C67.3567 72.5867 67.4829 72.3652 67.6964 72.3079L68.4698 72.1007Z" fill="#B9BED0"/>
<path d="M71.5634 71.2718C71.7769 71.2146 71.997 71.3434 72.0549 71.5595L77.5072 91.9076C77.5651 92.1237 77.4389 92.3453 77.2254 92.4025L76.452 92.6098C76.2384 92.667 76.0183 92.5382 75.9604 92.3221L70.5082 71.9739C70.4502 71.7578 70.5764 71.5362 70.79 71.479L71.5634 71.2718Z" fill="#B9BED0"/>
<path d="M93.2183 65.4694C93.4318 65.4122 93.6519 65.541 93.7098 65.7571L99.1621 86.1052C99.22 86.3213 99.0938 86.5429 98.8802 86.6001L98.1068 86.8074C97.8933 86.8646 97.6732 86.7358 97.6153 86.5197L92.163 66.1715C92.1051 65.9554 92.2313 65.7338 92.4449 65.6766L93.2183 65.4694Z" fill="#B9BED0"/>
<path d="M35.1747 83.9579C35.3883 83.9007 35.6083 84.0295 35.6662 84.2456L39.6506 99.1154C39.7085 99.3315 39.5823 99.5531 39.3688 99.6104L38.5954 99.8176C38.3818 99.8748 38.1617 99.746 38.1038 99.5299L34.1195 84.6601C34.0616 84.444 34.1877 84.2224 34.4013 84.1652L35.1747 83.9579Z" fill="#B9BED0"/>
<path d="M66.1102 75.6688C66.3238 75.6116 66.5439 75.7404 66.6018 75.9565L70.5861 90.8263C70.644 91.0424 70.5179 91.264 70.3043 91.3212L69.5309 91.5284C69.3173 91.5857 69.0973 91.4569 69.0394 91.2407L65.055 76.3709C64.9971 76.1548 65.1233 75.9332 65.3368 75.876L66.1102 75.6688Z" fill="#B9BED0"/>
<path d="M75.3909 73.182C75.6045 73.1248 75.8245 73.2536 75.8824 73.4697L79.8668 88.3395C79.9247 88.5556 79.7985 88.7772 79.5849 88.8345L78.8116 89.0417C78.598 89.0989 78.3779 88.9701 78.32 88.754L74.3357 73.8842C74.2778 73.6681 74.4039 73.4465 74.6175 73.3893L75.3909 73.182Z" fill="#B9BED0"/>
<path d="M50.957 80.9873C51.1706 80.9301 51.3907 81.0589 51.4486 81.275L54.8038 93.7969C54.8617 94.013 54.7355 94.2346 54.522 94.2918L53.7486 94.4991C53.535 94.5563 53.3149 94.4275 53.257 94.2114L49.9018 81.6895C49.8439 81.4733 49.9701 81.2518 50.1836 81.1945L50.957 80.9873Z" fill="#B9BED0"/>
<path d="M54.0506 80.1584C54.2641 80.1012 54.4842 80.23 54.5421 80.4461L57.8974 92.968C57.9553 93.1841 57.8291 93.4057 57.6155 93.4629L56.8421 93.6702C56.6286 93.7274 56.4085 93.5986 56.3506 93.3825L52.9953 80.8605C52.9374 80.6444 53.0636 80.4228 53.2772 80.3656L54.0506 80.1584Z" fill="#B9BED0"/>
<path d="M88.0797 71.0403C88.2932 70.9831 88.5133 71.1119 88.5712 71.328L91.9264 83.8499C91.9844 84.0661 91.8582 84.2876 91.6446 84.3449L90.8712 84.5521C90.6577 84.6093 90.4376 84.4805 90.3797 84.2644L87.0244 71.7425C86.9665 71.5264 87.0927 71.3048 87.3063 71.2475L88.0797 71.0403Z" fill="#B9BED0"/>
<path d="M91.1732 70.2114C91.3868 70.1542 91.6069 70.283 91.6648 70.4991L95.02 83.021C95.0779 83.2371 94.9517 83.4587 94.7382 83.516L93.9648 83.7232C93.7512 83.7804 93.5311 83.6516 93.4732 83.4355L90.118 70.9136C90.0601 70.6974 90.1863 70.4759 90.3998 70.4186L91.1732 70.2114Z" fill="#B9BED0"/>
<path d="M103.547 66.8957C103.761 66.8385 103.981 66.9673 104.039 67.1834L107.394 79.7054C107.452 79.9215 107.326 80.1431 107.112 80.2003L106.339 80.4075C106.125 80.4647 105.905 80.3359 105.847 80.1198L102.492 67.5979C102.434 67.3818 102.56 67.1602 102.774 67.103L103.547 66.8957Z" fill="#B9BED0"/>
<path d="M32.92 87.9173C33.1335 87.8601 33.3536 87.9889 33.4115 88.205L35.7182 96.8139C35.7761 97.03 35.65 97.2516 35.4364 97.3088L34.663 97.516C34.4494 97.5732 34.2294 97.4444 34.1715 97.2283L31.8647 88.6195C31.8068 88.4034 31.933 88.1818 32.1466 88.1246L32.92 87.9173Z" fill="#B9BED0"/>
<path d="M42.2006 85.4306C42.4142 85.3734 42.6343 85.5022 42.6922 85.7183L44.9989 94.3271C45.0568 94.5432 44.9306 94.7648 44.717 94.822L43.9437 95.0293C43.7301 95.0865 43.51 94.9577 43.4521 94.7416L41.1454 86.1327C41.0875 85.9166 41.2137 85.695 41.4272 85.6378L42.2006 85.4306Z" fill="#B9BED0"/>
<path d="M45.2942 84.6017C45.5077 84.5445 45.7278 84.6733 45.7857 84.8894L48.0924 93.4982C48.1504 93.7143 48.0242 93.9359 47.8106 93.9931L47.0372 94.2004C46.8237 94.2576 46.6036 94.1288 46.5457 93.9127L44.2389 85.3038C44.181 85.0877 44.3072 84.8661 44.5208 84.8089L45.2942 84.6017Z" fill="#B9BED0"/>
<path d="M48.3877 83.7728C48.6013 83.7155 48.8214 83.8443 48.8793 84.0605L51.186 92.6693C51.2439 92.8854 51.1177 93.107 50.9042 93.1642L50.1308 93.3714C49.9172 93.4287 49.6971 93.2999 49.6392 93.0837L47.3325 84.4749C47.2746 84.2588 47.4008 84.0372 47.6143 83.98L48.3877 83.7728Z" fill="#B9BED0"/>
<path d="M97.8846 70.5101C98.0981 70.4529 98.3182 70.5817 98.3761 70.7978L100.683 79.4066C100.741 79.6228 100.615 79.8443 100.401 79.9016L99.6276 80.1088C99.4141 80.166 99.194 80.0372 99.1361 79.8211L96.8293 71.2123C96.7714 70.9962 96.8976 70.7746 97.1112 70.7174L97.8846 70.5101Z" fill="#B9BED0"/>
<path d="M100.978 69.6812C101.192 69.624 101.412 69.7528 101.47 69.9689L103.776 78.5777C103.834 78.7938 103.708 79.0154 103.495 79.0727L102.721 79.2799C102.508 79.3371 102.288 79.2083 102.23 78.9922L99.9229 70.3834C99.865 70.1672 99.9912 69.9457 100.205 69.8884L100.978 69.6812Z" fill="#B9BED0"/>
<path d="M107.165 68.0234C107.379 67.9662 107.599 68.095 107.657 68.3111L109.964 76.9199C110.021 77.136 109.895 77.3576 109.682 77.4148L108.908 77.6221C108.695 77.6793 108.475 77.5505 108.417 77.3344L106.11 68.7255C106.052 68.5094 106.178 68.2878 106.392 68.2306L107.165 68.0234Z" fill="#B9BED0"/>
<path d="M27.1523 91.1404C27.3658 91.0832 27.5859 91.212 27.6438 91.4281L29.1117 96.9065C29.1696 97.1226 29.0434 97.3442 28.8299 97.4014L28.0565 97.6086C27.8429 97.6658 27.6229 97.537 27.5649 97.3209L26.097 91.8426C26.0391 91.6265 26.1653 91.4049 26.3789 91.3476L27.1523 91.1404Z" fill="#B9BED0"/>
<path d="M30.2458 90.3115C30.4594 90.2543 30.6794 90.3831 30.7374 90.5992L32.2053 96.0775C32.2632 96.2937 32.137 96.5152 31.9234 96.5725L31.15 96.7797C30.9365 96.8369 30.7164 96.7081 30.6585 96.492L29.1906 91.0136C29.1327 90.7975 29.2589 90.5759 29.4724 90.5187L30.2458 90.3115Z" fill="#B9BED0"/>
<path d="M58.0878 82.8513C58.3014 82.794 58.5214 82.9228 58.5793 83.139L60.0473 88.6173C60.1052 88.8334 59.979 89.055 59.7654 89.1122L58.992 89.3195C58.7785 89.3767 58.5584 89.2479 58.5005 89.0318L57.0326 83.5534C56.9747 83.3373 57.1008 83.1157 57.3144 83.0585L58.0878 82.8513Z" fill="#B9BED0"/>
<path d="M61.1813 82.0223C61.3949 81.9651 61.615 82.0939 61.6729 82.31L63.1408 87.7884C63.1987 88.0045 63.0725 88.2261 62.859 88.2833L62.0856 88.4905C61.872 88.5478 61.6519 88.419 61.594 88.2028L60.1261 82.7245C60.0682 82.5084 60.1944 82.2868 60.408 82.2296L61.1813 82.0223Z" fill="#B9BED0"/>
<path d="M64.2749 81.1934C64.4885 81.1362 64.7085 81.265 64.7664 81.4811L66.2344 86.9595C66.2923 87.1756 66.1661 87.3972 65.9525 87.4544L65.1791 87.6616C64.9656 87.7188 64.7455 87.59 64.6876 87.3739L63.2197 81.8956C63.1618 81.6795 63.2879 81.4579 63.5015 81.4007L64.2749 81.1934Z" fill="#B9BED0"/>
<path d="M79.7427 77.0489C79.9562 76.9916 80.1763 77.1204 80.2342 77.3365L81.7021 82.8149C81.76 83.031 81.6339 83.2526 81.4203 83.3098L80.6469 83.517C80.4333 83.5743 80.2133 83.4455 80.1554 83.2294L78.6874 77.751C78.6295 77.5349 78.7557 77.3133 78.9693 77.2561L79.7427 77.0489Z" fill="#B9BED0"/>
<path d="M82.8362 76.2199C83.0498 76.1627 83.2699 76.2915 83.3278 76.5076L84.7957 81.986C84.8536 82.2021 84.7274 82.4237 84.5138 82.4809L83.7405 82.6881C83.5269 82.7454 83.3068 82.6166 83.2489 82.4004L81.781 76.9221C81.7231 76.706 81.8493 76.4844 82.0628 76.4272L82.8362 76.2199Z" fill="#B9BED0"/>
<path d="M85.9298 75.391C86.1433 75.3338 86.3634 75.4626 86.4213 75.6787L87.8892 81.1571C87.9471 81.3732 87.821 81.5948 87.6074 81.652L86.834 81.8592C86.6204 81.9164 86.4004 81.7876 86.3425 81.5715L84.8745 76.0932C84.8166 75.8771 84.9428 75.6555 85.1564 75.5983L85.9298 75.391Z" fill="#B9BED0"/>
<path d="M110.678 68.7597C110.892 68.7025 111.112 68.8313 111.17 69.0474L112.638 74.5257C112.696 74.7419 112.569 74.9634 112.356 75.0207L111.582 75.2279C111.369 75.2851 111.149 75.1563 111.091 74.9402L109.623 69.4619C109.565 69.2457 109.691 69.0242 109.905 68.9669L110.678 68.7597Z" fill="#B9BED0"/>
<path d="M113.772 67.9308C113.985 67.8736 114.205 68.0024 114.263 68.2185L115.731 73.6968C115.789 73.9129 115.663 74.1345 115.449 74.1918L114.676 74.399C114.462 74.4562 114.242 74.3274 114.184 74.1113L112.717 68.6329C112.659 68.4168 112.785 68.1952 112.998 68.138L113.772 67.9308Z" fill="#B9BED0"/>
<path d="M37.5343 78.9975C37.7479 78.9403 37.9679 79.0691 38.0258 79.2852L43.4781 99.6334C43.536 99.8495 43.4098 100.071 43.1963 100.128L42.4229 100.336C42.2093 100.393 41.9892 100.264 41.9313 100.048L36.4791 79.6997C36.4212 79.4836 36.5473 79.262 36.7609 79.2047L37.5343 78.9975Z" fill="#D4D8E2"/>
<path d="M68.4698 70.7084C68.6834 70.6511 68.9035 70.7799 68.9614 70.9961L74.4136 91.3442C74.4716 91.5603 74.3454 91.7819 74.1318 91.8391L73.3584 92.0464C73.1448 92.1036 72.9248 91.9748 72.8669 91.7587L67.4146 71.4105C67.3567 71.1944 67.4829 70.9728 67.6964 70.9156L68.4698 70.7084Z" fill="#D4D8E2"/>
<path d="M71.5634 69.8795C71.7769 69.8222 71.997 69.951 72.0549 70.1671L77.5072 90.5153C77.5651 90.7314 77.4389 90.953 77.2254 91.0102L76.452 91.2174C76.2384 91.2747 76.0183 91.1459 75.9604 90.9297L70.5082 70.5816C70.4502 70.3655 70.5764 70.1439 70.79 70.0867L71.5634 69.8795Z" fill="#D4D8E2"/>
<path d="M93.2183 64.077C93.4318 64.0198 93.6519 64.1486 93.7098 64.3647L99.1621 84.7129C99.22 84.929 99.0938 85.1506 98.8802 85.2078L98.1068 85.415C97.8933 85.4723 97.6732 85.3435 97.6153 85.1273L92.163 64.7792C92.1051 64.5631 92.2313 64.3415 92.4449 64.2843L93.2183 64.077Z" fill="#D4D8E2"/>
<path d="M35.1747 82.5656C35.3883 82.5084 35.6083 82.6372 35.6662 82.8533L39.6506 97.7231C39.7085 97.9392 39.5823 98.1608 39.3688 98.218L38.5954 98.4253C38.3818 98.4825 38.1617 98.3537 38.1038 98.1376L34.1195 83.2678C34.0616 83.0516 34.1877 82.8301 34.4013 82.7728L35.1747 82.5656Z" fill="#D4D8E2"/>
<path d="M66.1102 74.2765C66.3238 74.2192 66.5439 74.348 66.6018 74.5642L70.5861 89.4339C70.644 89.6501 70.5179 89.8716 70.3043 89.9289L69.5309 90.1361C69.3173 90.1933 69.0973 90.0645 69.0394 89.8484L65.055 74.9786C64.9971 74.7625 65.1233 74.5409 65.3368 74.4837L66.1102 74.2765Z" fill="#D4D8E2"/>
<path d="M75.3909 71.7897C75.6045 71.7325 75.8245 71.8613 75.8824 72.0774L79.8668 86.9472C79.9247 87.1633 79.7985 87.3849 79.5849 87.4421L78.8116 87.6494C78.598 87.7066 78.3779 87.5778 78.32 87.3617L74.3357 72.4919C74.2778 72.2757 74.4039 72.0542 74.6175 71.9969L75.3909 71.7897Z" fill="#D4D8E2"/>
<path d="M50.957 79.595C51.1706 79.5377 51.3907 79.6665 51.4486 79.8827L54.8038 92.4046C54.8617 92.6207 54.7355 92.8423 54.522 92.8995L53.7486 93.1067C53.535 93.164 53.3149 93.0352 53.257 92.819L49.9018 80.2971C49.8439 80.081 49.9701 79.8594 50.1836 79.8022L50.957 79.595Z" fill="#D4D8E2"/>
<path d="M54.0506 78.766C54.2641 78.7088 54.4842 78.8376 54.5421 79.0537L57.8974 91.5757C57.9553 91.7918 57.8291 92.0134 57.6155 92.0706L56.8421 92.2778C56.6286 92.3351 56.4085 92.2062 56.3506 91.9901L52.9953 79.4682C52.9374 79.2521 53.0636 79.0305 53.2772 78.9733L54.0506 78.766Z" fill="#D4D8E2"/>
<path d="M88.0797 69.648C88.2932 69.5908 88.5133 69.7196 88.5712 69.9357L91.9264 82.4576C91.9844 82.6737 91.8582 82.8953 91.6446 82.9525L90.8712 83.1598C90.6577 83.217 90.4376 83.0882 90.3797 82.8721L87.0244 70.3501C86.9665 70.134 87.0927 69.9124 87.3063 69.8552L88.0797 69.648Z" fill="#D4D8E2"/>
<path d="M91.1732 68.8191C91.3868 68.7618 91.6069 68.8906 91.6648 69.1068L95.02 81.6287C95.0779 81.8448 94.9517 82.0664 94.7382 82.1236L93.9648 82.3308C93.7512 82.3881 93.5311 82.2593 93.4732 82.0432L90.118 69.5212C90.0601 69.3051 90.1863 69.0835 90.3998 69.0263L91.1732 68.8191Z" fill="#D4D8E2"/>
<path d="M103.547 65.5034C103.761 65.4462 103.981 65.575 104.039 65.7911L107.394 78.313C107.452 78.5291 107.326 78.7507 107.112 78.808L106.339 79.0152C106.125 79.0724 105.905 78.9436 105.847 78.7275L102.492 66.2056C102.434 65.9894 102.56 65.7679 102.774 65.7106L103.547 65.5034Z" fill="#D4D8E2"/>
<path d="M32.92 86.525C33.1335 86.4678 33.3536 86.5966 33.4115 86.8127L35.7182 95.4215C35.7761 95.6376 35.65 95.8592 35.4364 95.9165L34.663 96.1237C34.4494 96.1809 34.2294 96.0521 34.1715 95.836L31.8647 87.2272C31.8068 87.011 31.933 86.7895 32.1466 86.7322L32.92 86.525Z" fill="#D4D8E2"/>
<path d="M42.2006 84.0383C42.4142 83.981 42.6343 84.1098 42.6922 84.326L44.9989 92.9348C45.0568 93.1509 44.9306 93.3725 44.717 93.4297L43.9437 93.6369C43.7301 93.6942 43.51 93.5654 43.4521 93.3492L41.1454 84.7404C41.0875 84.5243 41.2137 84.3027 41.4272 84.2455L42.2006 84.0383Z" fill="#D4D8E2"/>
<path d="M45.2942 83.2093C45.5077 83.1521 45.7278 83.2809 45.7857 83.497L48.0924 92.1059C48.1504 92.322 48.0242 92.5436 47.8106 92.6008L47.0372 92.808C46.8237 92.8652 46.6036 92.7364 46.5457 92.5203L44.2389 83.9115C44.181 83.6954 44.3072 83.4738 44.5208 83.4166L45.2942 83.2093Z" fill="#D4D8E2"/>
<path d="M48.3877 82.3804C48.6013 82.3232 48.8214 82.452 48.8793 82.6681L51.186 91.277C51.2439 91.4931 51.1177 91.7147 50.9042 91.7719L50.1308 91.9791C49.9172 92.0363 49.6971 91.9075 49.6392 91.6914L47.3325 83.0826C47.2746 82.8665 47.4008 82.6449 47.6143 82.5877L48.3877 82.3804Z" fill="#D4D8E2"/>
<path d="M97.8846 69.1178C98.0981 69.0606 98.3182 69.1894 98.3761 69.4055L100.683 78.0143C100.741 78.2304 100.615 78.452 100.401 78.5092L99.6276 78.7165C99.4141 78.7737 99.194 78.6449 99.1361 78.4288L96.8293 69.8199C96.7714 69.6038 96.8976 69.3822 97.1112 69.325L97.8846 69.1178Z" fill="#D4D8E2"/>
<path d="M100.978 68.2889C101.192 68.2316 101.412 68.3605 101.47 68.5766L103.776 77.1854C103.834 77.4015 103.708 77.6231 103.495 77.6803L102.721 77.8876C102.508 77.9448 102.288 77.816 102.23 77.5999L99.9229 68.991C99.865 68.7749 99.9912 68.5533 100.205 68.4961L100.978 68.2889Z" fill="#D4D8E2"/>
<path d="M107.165 66.631C107.379 66.5738 107.599 66.7026 107.657 66.9187L109.964 75.5276C110.021 75.7437 109.895 75.9653 109.682 76.0225L108.908 76.2297C108.695 76.2869 108.475 76.1581 108.417 75.942L106.11 67.3332C106.052 67.1171 106.178 66.8955 106.392 66.8383L107.165 66.631Z" fill="#D4D8E2"/>
<path d="M27.1523 89.7481C27.3658 89.6909 27.5859 89.8197 27.6438 90.0358L29.1117 95.5141C29.1696 95.7302 29.0434 95.9518 28.8299 96.009L28.0565 96.2163C27.8429 96.2735 27.6229 96.1447 27.5649 95.9286L26.097 90.4502C26.0391 90.2341 26.1653 90.0125 26.3789 89.9553L27.1523 89.7481Z" fill="#D4D8E2"/>
<path d="M30.2458 88.9192C30.4594 88.8619 30.6794 88.9907 30.7374 89.2069L32.2053 94.6852C32.2632 94.9013 32.137 95.1229 31.9234 95.1801L31.15 95.3874C30.9365 95.4446 30.7164 95.3158 30.6585 95.0997L29.1906 89.6213C29.1327 89.4052 29.2589 89.1836 29.4724 89.1264L30.2458 88.9192Z" fill="#D4D8E2"/>
<path d="M58.0878 81.4589C58.3014 81.4017 58.5214 81.5305 58.5793 81.7466L60.0473 87.225C60.1052 87.4411 59.979 87.6627 59.7654 87.7199L58.992 87.9271C58.7785 87.9843 58.5584 87.8555 58.5005 87.6394L57.0326 82.1611C56.9747 81.945 57.1008 81.7234 57.3144 81.6662L58.0878 81.4589Z" fill="#D4D8E2"/>
<path d="M61.1813 80.63C61.3949 80.5728 61.615 80.7016 61.6729 80.9177L63.1408 86.3961C63.1987 86.6122 63.0725 86.8338 62.859 86.891L62.0856 87.0982C61.872 87.1554 61.6519 87.0266 61.594 86.8105L60.1261 81.3322C60.0682 81.1161 60.1944 80.8945 60.408 80.8372L61.1813 80.63Z" fill="#D4D8E2"/>
<path d="M64.2749 79.8011C64.4885 79.7439 64.7085 79.8727 64.7664 80.0888L66.2344 85.5671C66.2923 85.7833 66.1661 86.0048 65.9525 86.0621L65.1791 86.2693C64.9656 86.3265 64.7455 86.1977 64.6876 85.9816L63.2197 80.5032C63.1618 80.2871 63.2879 80.0655 63.5015 80.0083L64.2749 79.8011Z" fill="#D4D8E2"/>
<path d="M79.7427 75.6565C79.9562 75.5993 80.1763 75.7281 80.2342 75.9442L81.7021 81.4226C81.76 81.6387 81.6339 81.8603 81.4203 81.9175L80.6469 82.1247C80.4333 82.1819 80.2133 82.0531 80.1554 81.837L78.6874 76.3587C78.6295 76.1426 78.7557 75.921 78.9693 75.8637L79.7427 75.6565Z" fill="#D4D8E2"/>
<path d="M82.8362 74.8276C83.0498 74.7704 83.2699 74.8992 83.3278 75.1153L84.7957 80.5936C84.8536 80.8098 84.7274 81.0313 84.5138 81.0886L83.7405 81.2958C83.5269 81.353 83.3068 81.2242 83.2489 81.0081L81.781 75.5298C81.7231 75.3136 81.8493 75.0921 82.0628 75.0348L82.8362 74.8276Z" fill="#D4D8E2"/>
<path d="M85.9298 73.9987C86.1433 73.9415 86.3634 74.0703 86.4213 74.2864L87.8892 79.7647C87.9471 79.9808 87.821 80.2024 87.6074 80.2597L86.834 80.4669C86.6204 80.5241 86.4004 80.3953 86.3425 80.1792L84.8745 74.7008C84.8166 74.4847 84.9428 74.2631 85.1564 74.2059L85.9298 73.9987Z" fill="#D4D8E2"/>
<path d="M110.678 67.3674C110.892 67.3101 111.112 67.4389 111.17 67.6551L112.638 73.1334C112.696 73.3495 112.569 73.5711 112.356 73.6283L111.582 73.8356C111.369 73.8928 111.149 73.764 111.091 73.5479L109.623 68.0695C109.565 67.8534 109.691 67.6318 109.905 67.5746L110.678 67.3674Z" fill="#D4D8E2"/>
<path d="M113.772 66.5385C113.985 66.4812 114.205 66.61 114.263 66.8261L115.731 72.3045C115.789 72.5206 115.663 72.7422 115.449 72.7994L114.676 73.0066C114.462 73.0639 114.242 72.9351 114.184 72.719L112.717 67.2406C112.659 67.0245 112.785 66.8029 112.998 66.7457L113.772 66.5385Z" fill="#D4D8E2"/>
<path d="M51.9955 17.2437C55.2741 16.3635 58.8776 18.3358 60.0397 21.6464L60.0356 21.6476C61.1785 24.9034 59.5381 28.2373 56.3658 29.1859L56.3687 29.1943L22.4718 38.2944C19.1932 39.1745 15.5897 37.2023 14.4276 33.8916C13.2654 30.5809 14.9829 27.1802 18.2615 26.3C18.4204 26.2573 18.5756 26.2288 18.7346 26.1996L18.7465 26.1975C18.4668 25.8434 18.2409 25.4471 18.0869 25.0085C17.3822 23.001 18.4214 20.9361 20.4137 20.4012C21.32 20.1579 22.2669 20.2775 23.0971 20.6638C23.9901 17.5444 26.4016 15.0141 29.818 14.0969C34.4498 12.8535 39.4625 14.9735 42.1393 18.9667C42.5016 17.9418 43.3339 17.1231 44.4825 16.8147C46.3118 16.3236 48.3021 17.2938 49.1622 19.0149C49.8726 18.1874 50.8344 17.5554 51.9955 17.2437Z" fill="#BCC1D2"/>
<path d="M53.5321 15.7434C56.8107 14.8632 60.4142 16.8355 61.5764 20.1462L61.5722 20.1473C62.7151 23.4032 61.0747 26.7371 57.9024 27.6856L57.9054 27.6941L24.0084 36.7941C20.7298 37.6743 17.1263 35.702 15.9642 32.3913C14.802 29.0807 16.5195 25.6799 19.7981 24.7997C19.957 24.7571 20.1122 24.7286 20.2712 24.6994L20.2831 24.6972C20.0034 24.3431 19.7775 23.9469 19.6235 23.5083C18.9188 21.5008 19.9581 19.4358 21.9503 18.901C22.8566 18.6577 23.8035 18.7773 24.6337 19.1636C25.5267 16.0441 27.9382 13.5139 31.3546 12.5967C35.9864 11.3532 40.9991 13.4733 43.6759 17.4665C44.0382 16.4416 44.8705 15.6228 46.0191 15.3145C47.8484 14.8234 49.8388 15.7935 50.6989 17.5147C51.4092 16.6871 52.371 16.0551 53.5321 15.7434Z" fill="#EDEEF3"/>
<path d="M119.278 46.2868C120.983 45.8291 122.857 46.8547 123.461 48.5763L123.459 48.5769C124.053 50.2699 123.2 52.0035 121.55 52.4968L121.552 52.5012L103.926 57.2332C102.221 57.6908 100.347 56.6653 99.7426 54.9437C99.1383 53.2222 100.031 51.4538 101.736 50.9961C101.819 50.9739 101.9 50.9591 101.982 50.9439L101.988 50.9428C101.843 50.7587 101.726 50.5526 101.645 50.3245C101.279 49.2807 101.819 48.2069 102.855 47.9288C103.327 47.8023 103.819 47.8644 104.251 48.0653C104.715 46.4432 105.969 45.1275 107.746 44.6505C110.154 44.0039 112.761 45.1064 114.153 47.1828C114.341 46.6499 114.774 46.2241 115.371 46.0638C116.322 45.8084 117.357 46.3129 117.805 47.2079C118.174 46.7776 118.674 46.4489 119.278 46.2868Z" fill="#BCC1D2"/>
<path d="M120.077 45.5066C121.782 45.0489 123.655 46.0744 124.26 47.796L124.258 47.7966C124.852 49.4896 123.999 51.2232 122.349 51.7165L122.351 51.7209L104.724 56.4529C103.02 56.9106 101.146 55.885 100.541 54.1635C99.9372 52.4419 100.83 50.6735 102.535 50.2158C102.618 50.1936 102.698 50.1788 102.781 50.1637L102.787 50.1625C102.642 49.9784 102.524 49.7724 102.444 49.5443C102.078 48.5004 102.618 47.4266 103.654 47.1485C104.125 47.022 104.618 47.0842 105.05 47.285C105.514 45.6629 106.768 44.3472 108.544 43.8703C110.953 43.2237 113.56 44.3261 114.951 46.4025C115.14 45.8696 115.573 45.4439 116.17 45.2835C117.121 45.0282 118.156 45.5326 118.603 46.4276C118.973 45.9973 119.473 45.6686 120.077 45.5066Z" fill="#EDEEF3"/>
<path d="M2.61732 69.7157C4.11185 74.2087 7.8664 78.0516 10.983 78.281C14.0997 78.5104 15.4119 75.069 13.9174 70.5761C12.4229 66.0832 8.66834 62.2403 5.5517 62.0108C2.43506 61.7814 1.12279 65.2228 2.61732 69.7157Z" fill="#ECAE13"/>
<path d="M73.212 12.7487C76.0735 14.4885 78.3882 18.6947 78.3882 22.1552C78.3882 25.6157 76.0553 27.0114 73.1756 25.2716C70.3141 23.5318 67.9994 19.3256 67.9994 15.8651C67.9994 12.4046 70.3323 11.0089 73.212 12.7487Z" fill="#E0E3EB"/>
<path d="M116.235 104.853C116.781 106.517 118.167 107.931 119.315 108.027C120.463 108.122 120.955 106.842 120.39 105.178C119.825 103.515 118.458 102.101 117.31 102.005C116.162 101.909 115.67 103.19 116.235 104.853Z" fill="#CF4CE6"/>
</g>
<defs>
<clipPath id="clip0_14951_6764">
<rect width="128" height="128" fill="white"/>
</clipPath>
</defs>
</svg>
