<svg width="307" height="264" viewBox="0 0 307 264" fill="none" xmlns="http://www.w3.org/2000/svg">
<path d="M174.373 94.8919C174.949 96.5628 176.408 97.9841 177.618 98.0802C178.828 98.1762 179.347 96.8894 178.752 95.2184C178.156 93.5474 176.716 92.1261 175.506 92.0301C174.296 91.9341 173.777 93.2209 174.373 94.8919Z" fill="#6B89F6"/>
<path d="M132.776 60.7762C134.35 65.2897 138.307 69.1502 141.591 69.3807C144.876 69.6111 146.258 66.154 144.684 61.6405C143.109 57.1269 139.152 53.2664 135.868 53.036C132.583 52.8055 131.201 56.2626 132.776 60.7762Z" fill="#FFC000"/>
<path d="M117.618 85.7772C120.634 87.525 123.073 91.7504 123.073 95.2268C123.073 98.7032 120.614 100.105 117.58 98.3574C114.564 96.6097 112.125 92.3842 112.125 88.9079C112.125 85.4315 114.583 84.0294 117.618 85.7772Z" fill="#E0E7EB"/>
<g filter="url(#filter0_f_5216_15778)">
<circle cx="175" cy="135.975" r="75" fill="#F1FBFF"/>
</g>
<path d="M115.005 180.791V190.187C115.005 191.088 115.742 191.821 116.638 191.821H202.943C203.844 191.821 204.577 191.088 204.577 190.187V180.791H115.009H115.005Z" fill="url(#paint0_linear_5216_15778)"/>
<path d="M204.572 128.904C204.572 128.008 203.84 127.27 202.939 127.27H116.634C115.737 127.27 115 128.003 115 128.904V180.791H204.572V128.904Z" fill="url(#paint1_linear_5216_15778)"/>
<path d="M175.382 191.821H144.572V201.281H175.382V191.821Z" fill="url(#paint2_linear_5216_15778)"/>
<path d="M182.362 201.281H137.169V205.708H182.362V201.281Z" fill="url(#paint3_linear_5216_15778)"/>
<path d="M175.382 191.821H144.572V195.238H175.382V191.821Z" fill="#ADC8D8"/>
<path d="M199.958 131.93H119.632V176.004H199.958V131.93Z" fill="url(#paint4_linear_5216_15778)"/>
<path d="M151.275 140.575L145.687 146.168L140.095 140.575L137.861 142.814L143.448 148.402L137.861 153.99L140.095 156.228L145.687 150.636L151.275 156.228L153.509 153.99L147.921 148.402L153.509 142.814L151.275 140.575Z" fill="#98BACD"/>
<path d="M181.716 142.814L179.482 140.575L173.89 146.168L168.302 140.575L166.068 142.814L171.656 148.402L166.068 153.99L168.302 156.228L173.89 150.636L179.482 156.228L181.716 153.99L176.129 148.402L181.716 142.814Z" fill="#98BACD"/>
<path d="M171.765 169.884C159.934 161.716 147.953 169.802 147.835 169.884L146.283 167.636C146.42 167.54 159.957 158.408 173.316 167.636L171.765 169.884Z" fill="#98BACD"/>
<path d="M233.18 108H192.682C191.677 108 190.862 108.815 190.862 109.82V135.975C190.862 136.981 191.677 137.795 192.682 137.795H197.369L192.755 146.541L208.326 137.795H233.18C234.186 137.795 235 136.981 235 135.975V109.82C235 108.815 234.186 108 233.18 108Z" fill="url(#paint5_linear_5216_15778)"/>
<defs>
<filter id="filter0_f_5216_15778" x="0" y="-39.0251" width="350" height="350" filterUnits="userSpaceOnUse" color-interpolation-filters="sRGB">
<feFlood flood-opacity="0" result="BackgroundImageFix"/>
<feBlend mode="normal" in="SourceGraphic" in2="BackgroundImageFix" result="shape"/>
<feGaussianBlur stdDeviation="50" result="effect1_foregroundBlur_5216_15778"/>
</filter>
<linearGradient id="paint0_linear_5216_15778" x1="160.149" y1="180.791" x2="160.107" y2="191.749" gradientUnits="userSpaceOnUse">
<stop stop-color="#F6F9FA"/>
<stop offset="1" stop-color="#E3EDF2"/>
</linearGradient>
<linearGradient id="paint1_linear_5216_15778" x1="160.144" y1="127.27" x2="159.152" y2="180.424" gradientUnits="userSpaceOnUse">
<stop stop-color="#F6F9FA"/>
<stop offset="1" stop-color="#E3EDF2"/>
</linearGradient>
<linearGradient id="paint2_linear_5216_15778" x1="160.055" y1="191.894" x2="160.041" y2="201.189" gradientUnits="userSpaceOnUse">
<stop stop-color="#ADC8D8"/>
<stop offset="1" stop-color="#DFEAF1"/>
</linearGradient>
<linearGradient id="paint3_linear_5216_15778" x1="159.946" y1="201.281" x2="159.933" y2="205.679" gradientUnits="userSpaceOnUse">
<stop stop-color="#F6F9FA"/>
<stop offset="1" stop-color="#E3EDF2"/>
</linearGradient>
<linearGradient id="paint4_linear_5216_15778" x1="161.723" y1="176.004" x2="173.75" y2="136.134" gradientUnits="userSpaceOnUse">
<stop stop-color="#E3EDF2"/>
<stop offset="1" stop-color="#DBE6EC"/>
</linearGradient>
<linearGradient id="paint5_linear_5216_15778" x1="213.99" y1="146.541" x2="228.831" y2="115.628" gradientUnits="userSpaceOnUse">
<stop stop-color="#E3EDF2"/>
<stop offset="1" stop-color="#DBE6EC"/>
</linearGradient>
</defs>
</svg>
