<svg width="129" height="111" viewBox="0 0 129 111" fill="none" xmlns="http://www.w3.org/2000/svg">
<path d="M3.72867 58.4681C3.19613 55.8174 4.77579 53.1988 7.3689 52.4337L37.5341 43.533C42.1469 42.1719 46.934 45.0598 47.8814 49.775C48.8357 54.5254 45.4799 59.0613 40.6581 59.5383L9.35989 62.6343C6.69131 62.8983 4.25687 61.0972 3.72867 58.4681Z" fill="#FF8B7B"/>
<path d="M111.111 69.8113C112.144 67.3126 111.097 64.439 108.7 63.1893L80.8104 48.6519C76.5456 46.4288 71.2923 48.3418 69.4556 52.7867C67.6052 57.2648 70.0258 62.3616 74.6658 63.7572L104.784 72.8163C107.352 73.5888 110.087 72.2896 111.111 69.8113Z" fill="#FF8B7B"/>
<path d="M5.23712 59.821C7.66541 61.6438 11.1373 60.9665 12.7024 58.3646L29.9029 29.77C30.7563 28.3512 30.2355 26.5066 28.7662 25.7435C27.552 25.113 26.0616 25.4271 25.2052 26.4941L4.31744 52.5173C2.50567 54.7745 2.92232 58.0834 5.23712 59.821Z" fill="#FF8B7B"/>
<path d="M107.834 71.7048C104.882 72.1589 102.185 69.9602 102.035 66.9771L100.317 32.8158C100.254 31.5682 101.264 30.5298 102.513 30.5579C103.503 30.5801 104.349 31.2749 104.564 32.2411L111.987 65.6303C112.62 68.4751 110.715 71.2617 107.834 71.7048Z" fill="#FF8B7B"/>
<path d="M53.8264 33.6787C54.4475 39.6683 54.6118 50.4933 50.2018 53.7685C50.2018 53.7685 54.1433 61.0063 64.3722 64.4543C72.8587 61.8657 74.5005 49.0689 74.5005 49.0689C65.9996 52.0687 62.597 49.059 64.1135 44.7073L53.8264 33.6787Z" fill="#FF8B7B"/>
<ellipse cx="60.5" cy="104" rx="38.5" ry="7" fill="#0A1B35"/>
<path d="M70.8194 50.204C72.1385 50.2929 73.4576 50.3819 74.6668 50.4708C80.2731 50.9154 83.5 51.9987 83.5 51.9987C83.3901 52.3988 83.6277 52.7282 83.8652 53.0577C84.1028 53.3871 84.3404 53.7165 84.2305 54.1166V54.2056C82.4717 60.2524 81.3724 66.2992 80.6029 71.9903C78.997 83.9291 79.0402 94.62 79.0673 101.309V101.309C79.0791 104.235 79.0878 106.396 78.954 107.56C76.2714 108.039 68.6803 108.999 59.7771 108.999C49.4959 108.999 42.3807 107.771 41.2966 107.583C41.2135 107.569 41.1416 107.497 41.1266 107.414C34.586 71.3159 45.2203 51.9825 45.2203 51.9825C45.6469 49.9878 47 45.8985 49 45.4985C51 45.0985 52.2337 45.7957 53 48.5C53 54.2957 57.5 62.9996 62.5 62.9996C66 62.9996 68.8194 58.9991 69.5 56.9991C70.0105 55.4991 70.5 52.4991 70.8194 50.204Z" fill="#FFC107"/>
<path d="M38.7978 53.2397C38.7817 53.3506 38.7817 53.3506 38.7817 53.3506C39.4613 61.1558 41 59.5 39.0019 79.5009C43.5006 70.5005 45.6491 62.4415 45.5009 58.0001C45.3062 53.0987 41.6209 53.3097 38.7978 53.2397Z" fill="#D1A110"/>
<path d="M83.5341 53.2395C83.5502 53.3505 83.5502 53.3505 83.5502 53.3505C82.8706 61.1556 84.5522 50.4999 80.9981 68.9999C75.5003 64.5 76.6828 62.4413 76.831 57.9999C77.0257 53.0985 80.711 53.3095 83.5341 53.2395Z" fill="#D1A110"/>
<path d="M37.857 60.1537C32.4984 61.7462 30.6195 62.9579 30.6195 62.9579C28.1417 58.7022 23.4504 57.2041 20.8638 51.9544C18.7946 47.7546 22.2854 43.4971 23.4586 43.4934C23.4586 43.4934 24.7402 45.9969 34.9589 42.8664C41.3129 41.165 42.0539 36.4585 49.1323 40.6832C57.0747 47.2572 48.9626 55.9206 37.857 60.1537Z" fill="#FFC107"/>
<path d="M81.9382 67.1329C89.368 69.2121 89.5 70.5 89.5 70.5C93.0292 62.5044 96.8799 61.1009 97.5 58C98.1201 54.8991 97.3736 52.5862 96.8094 52.1571C96.8094 52.1571 97.3334 56.0404 88.8032 52.6585C83.6012 50.5962 81.6131 43.1486 73.8627 45.9563C72.4396 46.6379 69.2047 49.0621 70.8176 53.8992C71.7046 59.1042 75.9867 64.8924 81.9382 67.1329Z" fill="#FFC107"/>
<path d="M100.787 27.4619C98.523 29.6565 99.5557 31.2811 100.764 35.1579C101.714 37.6818 105.293 36.3827 104.658 34.4197C104.066 32.5888 111.699 30.6015 115.778 29.8699C118.157 28.2265 123.121 24.6209 123.944 23.3463C124.973 21.753 127.352 22.2941 125.843 21.5726C124.333 20.8511 123.098 21.4523 119.026 23.6768C114.955 25.9014 112.851 26.6833 110.678 27.1343C108.505 27.5852 106.56 26.9539 107.59 25.3606C108.413 24.0859 107.567 23.0657 107.041 22.7149C106.659 22.3341 105.837 21.7229 105.6 22.3241C105.302 23.0757 103.052 25.2673 100.787 27.4619Z" fill="#FF8B7B"/>
<path d="M56.1333 45.5644L64.4266 48.3635C64.2695 49.1396 64.9998 49.5691 66.5 50.0688C61.9992 52.069 57.0041 49.3849 56.2727 47.6636C56.1685 46.8452 56.0642 46.0268 56.1333 45.5644Z" fill="#EA7063"/>
<path d="M76.6617 24.6044C79.4218 27.9975 76.5826 39.2039 71.0148 39.1401C65.3481 39.0233 71.3316 18.1751 76.6617 24.6044Z" fill="#171A2A"/>
<path d="M55.4903 24.7785C52.4582 32.3162 50.3272 36.5185 52.1701 42.0924C54.8813 50.552 65.228 51.9107 70.2817 45.5867C74.8649 39.9011 79.0636 28.5341 73.4371 21.9455C67.9552 15.5619 58.4693 17.3396 55.4903 24.7785Z" fill="#FF8B7B"/>
<path d="M69.2859 11.5109C66.7603 6.97058 59.5056 6.25498 58.886 10.251C57.8962 16.5944 55.7173 8.80276 52.3653 15.2773C50.1355 19.4265 49.5686 31.8539 52.5928 33.0972C55.7158 34.3935 59.715 29.7946 60.9703 22.9572C61.9231 17.8672 64.7747 21.564 69.7909 25.0236C80.1727 32.0032 87 21.5688 82.3088 15.7082C73.5 13.0688 77 8.56885 77 8.56885C77 8.56885 66.6377 10.2538 73.5 14.0688C76.4487 15.7082 73.5 15.7082 69.2859 11.5109Z" fill="#171A2A"/>
<path d="M48.5301 31.0948C48.7674 33.2595 49.8628 35.2487 51.2842 36.3945C53.3898 38.1626 55.3938 36.5658 55.6195 34.0134C55.8379 31.7116 55.0448 27.9751 52.6591 27.2023C50.1214 26.4752 48.2014 28.6264 48.5301 31.0948Z" fill="#FF8B7B"/>
<path d="M33.1552 21.6049C34.3459 24.9184 31.3009 28.047 29.5637 30.379C28.6917 31.5506 23.8844 28.989 25.8502 26.7076C27.2563 25.0758 20.669 19.4264 16.9389 16.6965C15.3623 13.8812 12.1595 7.82955 11.9611 6.14545C11.713 4.04032 9.06151 3.42128 10.9303 3.43401C12.799 3.44673 13.7417 4.65512 16.7296 8.8822C19.7174 13.1093 21.4426 14.9243 23.3996 16.44C25.3565 17.9558 27.6167 18.2717 27.3686 16.1666C27.1702 14.4825 28.5208 13.8706 29.221 13.7751C29.7906 13.5787 30.9155 13.366 30.8582 14.0868C30.7865 14.9877 31.9645 18.2914 33.1552 21.6049Z" fill="#FF8B7B"/>
<path d="M59.3505 84.1066C60.0835 84.3458 60.919 84.2708 61.6684 83.9071C63.1673 83.1798 64.4035 81.3241 64.9277 78.8886C65.8061 75.0917 64.6063 71.3118 62.2399 70.279C61.3697 69.9082 60.4527 69.9566 59.5963 70.3722C58.0974 71.0996 56.8612 72.9552 56.3369 75.3907C55.4586 79.1877 56.6583 82.9676 59.0248 84.0003C59.1876 84.0535 59.2691 84.08 59.3505 84.1066ZM61.8208 71.0111C61.9023 71.0377 61.9837 71.0643 61.9837 71.0643C63.8871 71.8591 64.8938 75.4022 64.1691 78.728C63.6659 80.8228 62.6438 82.5746 61.2776 83.1714C60.6353 83.4831 59.9883 83.5327 59.3624 83.2416C57.459 82.4469 56.4523 78.9037 57.177 75.5779C57.6802 73.4831 58.7023 71.7314 60.0685 71.1345C60.6852 70.9013 61.2507 70.8251 61.8208 71.0111Z" fill="white"/>
<path d="M61 61C54.4909 60 53.4978 53 52.9978 48.5C51.9976 53.5 53.9938 67.5061 62.5 64C70.9913 60.5 70.5041 57 70.5041 51.5C69.9996 55.5 68.1165 62.0933 61 61Z" fill="white"/>
</svg>
