<svg width="80" height="80" viewBox="0 0 80 80" fill="none" xmlns="http://www.w3.org/2000/svg">
<path fill-rule="evenodd" clip-rule="evenodd" d="M60.7805 47.1641C59.8065 48.1763 59.3534 49.6451 59.5827 51.0875L61.1397 60.7703C62.1942 67.3284 55.2406 72.2124 49.4618 68.9726L41.8993 64.7326C40.7096 64.0653 39.2896 64.065 38.0984 64.7328L30.5375 68.9711C24.7588 72.2104 17.8057 67.3263 18.8602 60.7686L20.4162 51.0919C20.6487 49.6466 20.1927 48.176 19.219 47.1641L12.2297 39.8985C7.77093 35.2636 10.3737 27.5101 16.7182 26.5275L25.981 25.0929C27.2954 24.8882 28.4672 24.0023 29.0771 22.6841L32.8221 14.597C35.6609 8.4669 44.3456 8.4679 47.1829 14.5986L50.9259 22.6864C51.5352 24.0028 52.7045 24.8885 54.0237 25.0929L63.282 26.527C69.6264 27.5098 72.229 35.2632 67.7703 39.8981L60.7805 47.1641Z" fill="#E0E7EB"/>
</svg>
