<svg width="128" height="128" viewBox="0 0 128 128" fill="none" xmlns="http://www.w3.org/2000/svg">
<g clip-path="url(#clip0_14624_14637)">
<path d="M5.66963 80.9646C7.29097 85.6024 11.3641 89.5693 14.7452 89.8061C18.1262 90.0429 19.5499 86.4905 17.9285 81.8527C16.3072 77.2148 12.2341 73.248 8.85299 73.0112C5.47191 72.7744 4.0483 76.3267 5.66963 80.9646Z" fill="#ECAE13"/>
<path d="M4.58974 55.3117C2.33654 46.7763 7.32683 38.0029 15.7359 35.7158L88.0588 16.0455C96.4679 13.7585 105.111 18.8238 107.365 27.3593L120.114 75.6555C122.367 84.191 117.377 92.9644 108.968 95.2515L36.6447 114.922C28.2356 117.209 19.5922 112.143 17.339 103.608L4.58974 55.3117Z" fill="#161922"/>
<path d="M87.5489 14.1137C95.9579 11.8266 104.601 16.8919 106.855 25.4274L107.11 26.3933L8.14122 53.3105L4.84472 56.2776L4.58974 55.3117C2.33654 46.7763 8.08875 35.7251 18.0807 33.0075L87.5489 14.1137Z" fill="#040506"/>
<path d="M108.968 95.2515C117.377 92.9644 126.088 82.8306 123.538 73.1714L123.155 71.7225L20.3805 99.6749L17.084 102.642L17.339 103.608C19.5922 112.143 28.2356 117.209 36.6447 114.922L108.968 95.2515Z" fill="#040506"/>
<path d="M7.88592 52.3445C5.63273 43.809 10.623 35.0356 19.032 32.7485L91.355 13.0783C99.7641 10.7912 108.407 15.8565 110.661 24.392L123.41 72.6883C125.663 81.2238 120.673 89.9971 112.264 92.2842L39.9408 111.954C31.5318 114.242 22.8884 109.176 20.6352 100.641L7.88592 52.3445Z" fill="#272C3A"/>
<path d="M91.355 13.0783C99.7641 10.7912 108.407 15.8565 110.661 24.392L110.916 25.3579L8.1409 53.3104L7.88592 52.3445C5.63273 43.809 10.623 35.0356 19.032 32.7485L91.355 13.0783Z" fill="#161922"/>
<path d="M112.264 92.2842C120.673 89.9971 125.663 81.2238 123.41 72.6883L123.155 71.7224L20.3802 99.6748L20.6352 100.641C22.8884 109.176 31.5318 114.242 39.9408 111.954L112.264 92.2842Z" fill="#161922"/>
<path d="M80.1776 59.6001C82.5716 68.6691 77.2694 77.9908 68.3348 80.4208C59.4002 82.8508 50.2166 77.4689 47.8225 68.4C45.4285 59.3311 50.7307 50.0093 59.6653 47.5793C68.5999 45.1493 77.7835 50.5312 80.1776 59.6001Z" fill="#040506"/>
<path d="M81.826 58.1165C84.22 67.1854 78.9178 76.5071 69.9832 78.9372C61.0486 81.3672 51.865 75.9853 49.471 66.9163C47.077 57.8474 52.3791 48.5257 61.3137 46.0957C70.2483 43.6657 79.432 49.0476 81.826 58.1165Z" fill="#161922"/>
<path d="M70.5796 58.9586C70.7574 59.0071 70.9422 59.0247 71.1253 59.0434C72.9707 59.2319 73.8664 61.5972 72.8192 62.6367L63.9452 71.5965C62.8677 72.666 61.0544 72.1617 60.6644 70.6842L57.8186 59.9039C57.4285 58.4263 58.9448 55.7986 60.4048 56.1779L70.5796 58.9586Z" fill="#040506"/>
<path d="M71.7709 59.0464C73.2594 59.4332 73.7584 61.3236 72.6599 62.4139L64.6422 70.3717C63.5647 71.4411 61.7514 70.9369 61.3614 69.4594L58.5156 58.679C58.1256 57.2015 59.4475 55.8446 60.9074 56.2239L71.7709 59.0464Z" fill="#2B3040"/>
<path d="M114.259 18.5147C112.967 18.8586 111.987 19.6827 111.423 20.7364C111.413 20.709 111.405 20.6818 111.397 20.6548C111.39 20.6293 111.384 20.604 111.377 20.5786C111.364 20.5265 111.35 20.4741 111.331 20.4208C109.663 15.7942 104.526 13.0584 99.8675 14.2986C96.2953 15.2495 94.0453 18.2615 93.9212 21.6963C93.3619 21.4837 92.7502 21.4233 92.163 21.5797C90.7243 21.9626 89.9758 23.4269 90.4897 24.8527C90.5562 25.037 90.6422 25.2161 90.7443 25.3803C89.9662 25.2154 89.1391 25.2123 88.3464 25.4233C85.7235 26.1215 84.3585 28.7917 85.2955 31.3911C86.2326 33.9906 89.1151 35.5301 91.738 34.8318L117.654 27.9329C120.276 27.2347 121.642 24.5645 120.704 21.9651C119.767 19.3656 116.885 17.8262 114.262 18.5244L114.259 18.5147Z" fill="#040506"/>
<path d="M27.0675 99.5798C26.3139 99.7763 25.7426 100.247 25.4136 100.849C25.4078 100.834 25.4029 100.818 25.3985 100.803C25.3943 100.788 25.3905 100.774 25.3867 100.759C25.3788 100.729 25.3709 100.699 25.3598 100.669C24.3869 98.0252 21.3902 96.4619 18.6727 97.1706C16.5889 97.714 15.2764 99.4352 15.204 101.398C14.8778 101.276 14.521 101.242 14.1784 101.331C13.3392 101.55 12.9025 102.387 13.2023 103.202C13.2411 103.307 13.2913 103.409 13.3508 103.503C12.8969 103.409 12.4145 103.407 11.9521 103.528C10.4221 103.927 9.62579 105.452 10.1724 106.938C10.719 108.423 12.4005 109.303 13.9305 108.904L29.0479 104.962C30.5779 104.563 31.3742 103.037 30.8276 101.551C30.281 100.066 28.5995 99.1864 27.0695 99.5854L27.0675 99.5798Z" fill="#040506"/>
<path d="M115.259 16.7297C113.967 17.09 112.987 17.9533 112.423 19.0572C112.413 19.0284 112.405 19 112.397 18.9717C112.39 18.945 112.384 18.9184 112.377 18.8919C112.364 18.8373 112.35 18.7823 112.331 18.7266C110.663 13.8796 105.526 11.0136 100.867 12.3128C97.2953 13.309 95.0453 16.4645 94.9212 20.0628C94.3619 19.8401 93.7502 19.7768 93.163 19.9406C91.7243 20.3418 90.9758 21.8758 91.4897 23.3695C91.5562 23.5626 91.6422 23.7502 91.7443 23.9222C90.9662 23.7494 90.1391 23.7462 89.3464 23.9673C86.7235 24.6988 85.3585 27.496 86.2955 30.2193C87.2326 32.9425 90.1151 34.5553 92.738 33.8238L118.654 26.5964C121.276 25.8649 122.642 23.0676 121.704 20.3443C120.767 17.6211 117.885 16.0084 115.262 16.7398L115.259 16.7297Z" fill="#272C3A"/>
<path d="M28.0675 98.5798C27.3139 98.7763 26.7426 99.2473 26.4136 99.8494C26.4078 99.8337 26.4029 99.8182 26.3985 99.8027C26.3943 99.7882 26.3905 99.7737 26.3867 99.7592C26.3788 99.7294 26.3709 99.6995 26.3598 99.669C25.3869 97.0252 22.3902 95.4619 19.6727 96.1706C17.5889 96.714 16.2764 98.4352 16.204 100.398C15.8778 100.276 15.521 100.242 15.1784 100.331C14.3392 100.55 13.9025 101.387 14.2023 102.202C14.2411 102.307 14.2913 102.409 14.3508 102.503C13.8969 102.409 13.4145 102.407 12.9521 102.528C11.4221 102.927 10.6258 104.452 11.1724 105.938C11.719 107.423 13.4005 108.303 14.9305 107.904L30.0479 103.962C31.5779 103.563 32.3742 102.037 31.8276 100.551C31.281 99.066 29.5995 98.1864 28.0695 98.5854L28.0675 98.5798Z" fill="#272C3A"/>
<path d="M37.7829 103.508C37.5716 102.708 38.0395 101.885 38.8278 101.671L109.725 82.3882C110.513 82.1738 111.323 82.6487 111.535 83.4489V83.4489C111.746 84.2491 111.278 85.0716 110.49 85.286L39.5928 104.568C38.8044 104.783 37.9941 104.308 37.7829 103.508V103.508Z" fill="#040506"/>
<path d="M38.7677 102.508C38.5565 101.708 39.0243 100.885 39.8127 100.671L110.71 81.3882C111.498 81.1738 112.308 81.6487 112.52 82.4489V82.4489C112.731 83.2491 112.263 84.0716 111.475 84.286L40.5776 103.568C39.7893 103.783 38.979 103.308 38.7677 102.508V102.508Z" fill="#2B3040"/>
<path d="M33.842 36.3786C33.6307 35.5784 34.0986 34.7559 34.8869 34.5415L69.5614 25.1108C70.3498 24.8963 71.1601 25.3712 71.3713 26.1714V26.1714C71.5826 26.9716 71.1147 27.7941 70.3264 28.0085L35.6519 37.4392C34.8635 37.6537 34.0532 37.1788 33.842 36.3786V36.3786Z" fill="#040506"/>
<path d="M34.8273 39.3786C34.6161 38.5784 35.0839 37.7559 35.8723 37.5415L75.1957 26.8464C75.9841 26.6319 76.7944 27.1068 77.0056 27.907V27.907C77.2168 28.7072 76.749 29.5297 75.9607 29.7441L36.6372 40.4392C35.8489 40.6536 35.0385 40.1788 34.8273 39.3786V39.3786Z" fill="#040506"/>
<path d="M34.8273 35.3786C34.6161 34.5784 35.0839 33.7559 35.8723 33.5415L69.5265 24.3882C70.3149 24.1738 71.1252 24.6487 71.3364 25.4489V25.4489C71.5477 26.2491 71.0798 27.0716 70.2915 27.286L36.6372 36.4392C35.8489 36.6536 35.0385 36.1788 34.8273 35.3786V35.3786Z" fill="#2B3040"/>
<path d="M35.8122 38.3786C35.6009 37.5784 36.0688 36.7559 36.8571 36.5415L75.1003 26.1402C75.8886 25.9258 76.699 26.4006 76.9102 27.2008V27.2008C77.1214 28.001 76.6536 28.8235 75.8652 29.0379L37.6221 39.4392C36.8337 39.6536 36.0234 39.1788 35.8122 38.3786V38.3786Z" fill="#2B3040"/>
<path d="M58 98.5C58 100.433 56.433 102 54.5 102C52.567 102 51 100.433 51 98.5C51 96.567 52.567 95 54.5 95C56.433 95 58 96.567 58 98.5Z" fill="#040506"/>
<path d="M59 97.5C59 99.433 57.433 101 55.5 101C53.567 101 52 99.433 52 97.5C52 95.567 53.567 94 55.5 94C57.433 94 59 95.567 59 97.5Z" fill="#2B3040"/>
<path d="M33 40C33 42.7614 30.7614 45 28 45C25.2386 45 23 42.7614 23 40C23 37.2386 25.2386 35 28 35C30.7614 35 33 37.2386 33 40Z" fill="#040506"/>
<path d="M33 39C33 41.7614 30.9853 44 28.5 44C26.0147 44 24 41.7614 24 39C24 36.2386 26.0147 34 28.5 34C30.9853 34 33 36.2386 33 39Z" fill="#2B3040"/>
<path d="M78.2548 8.94577C78.8479 10.6628 80.3506 12.1232 81.5963 12.2219C82.842 12.3205 83.3758 10.9983 82.7629 9.28127C82.1499 7.56429 80.667 6.10386 79.4213 6.00518C78.1757 5.90651 77.6418 7.22878 78.2548 8.94577Z" fill="#CF4CE6"/>
<path d="M100.014 93.534C102.218 94.7749 104 97.775 104 100.243C104 102.711 102.204 103.707 99.986 102.466C97.7825 101.225 96 98.225 96 95.7568C96 93.2886 97.7965 92.2931 100.014 93.534Z" fill="#2F3546"/>
</g>
<defs>
<clipPath id="clip0_14624_14637">
<rect width="128" height="128" fill="white"/>
</clipPath>
</defs>
</svg>
