<svg width="128" height="128" viewBox="0 0 128 128" fill="none" xmlns="http://www.w3.org/2000/svg">
<path d="M2.30502 54.3992C0.642272 48.1938 2.86569 41.8626 7.48344 37.9896C9.2173 36.5353 11.2887 35.4277 13.6187 34.8033L87.0291 15.1331C95.5645 12.846 104.338 17.9113 106.625 26.4468L119.566 74.7431C121.228 80.9461 119.007 87.2748 114.393 91.1482C112.658 92.6047 110.585 93.714 108.252 94.339L34.8419 114.009C26.3064 116.296 17.533 111.231 15.246 102.696L2.30502 54.3992Z" fill="#B9BED0"/>
<path d="M109.689 23.8755C107.402 15.34 98.6288 10.2747 90.0934 12.5618L87.0291 15.1331C95.5645 12.846 104.338 17.9113 106.625 26.4468L109.689 23.8755Z" fill="url(#paint0_linear_14624_14450)"/>
<path d="M122.63 72.172L109.689 23.8755L106.625 26.4468L119.566 74.7431L122.63 72.172Z" fill="url(#paint1_linear_14624_14450)"/>
<path d="M117.457 88.5769C122.071 84.7035 124.292 78.375 122.63 72.172L119.566 74.7431C121.228 80.9461 119.007 87.2748 114.393 91.1482L117.457 88.5769Z" fill="url(#paint2_linear_14624_14450)"/>
<path d="M111.316 91.7679C113.646 91.1436 115.718 90.0359 117.452 88.5817L114.393 91.1482C112.658 92.6047 110.585 93.714 108.252 94.339L111.316 91.7679Z" fill="#040506"/>
<path d="M90.0934 12.5618L16.683 32.2322L13.6187 34.8033L87.0291 15.1331L90.0934 12.5618Z" fill="url(#paint3_linear_14624_14450)"/>
<path d="M37.9061 111.438L111.316 91.7679L108.252 94.339L34.8419 114.009L37.9061 111.438Z" fill="#040506"/>
<path d="M10.5477 35.4183C12.2816 33.9641 14.3529 32.8565 16.683 32.2322L13.6187 34.8033C11.2887 35.4277 9.2173 36.5353 7.48344 37.9896L10.5477 35.4183Z" fill="url(#paint4_linear_14624_14450)"/>
<path d="M5.36919 51.8281C3.70709 45.625 5.92816 39.2963 10.5423 35.4229L7.48344 37.9896C2.86569 41.8626 0.642272 48.1938 2.30502 54.3992L5.36919 51.8281Z" fill="#040506"/>
<path d="M5.36919 51.8281L18.3102 100.124L15.246 102.696L2.30502 54.3992L5.36919 51.8281Z" fill="#040506"/>
<path d="M18.3102 100.124C20.5973 108.66 29.3706 113.725 37.9061 111.438L34.8419 114.009C26.3064 116.296 17.533 111.231 15.246 102.696L18.3102 100.124Z" fill="#040506"/>
<path d="M5.36919 51.8281C3.08213 43.2926 8.14749 34.5193 16.683 32.2322L90.0934 12.5618C98.6288 10.2747 107.402 15.34 109.689 23.8755L122.63 72.172C124.917 80.7074 119.852 89.4808 111.316 91.7679L37.9061 111.438C29.3706 113.725 20.5973 108.66 18.3102 100.124L5.36919 51.8281Z" fill="#161922"/>
<path d="M5.11047 50.8621L109.43 22.9096L122.889 73.1378L18.5691 101.09L5.11047 50.8621Z" fill="#272C3A"/>
<path d="M82.7522 57.8502C85.0375 66.3793 81.9836 75.0813 75.6393 80.4072C73.2537 82.4099 70.4029 83.9352 67.1958 84.7946C55.4596 87.9393 43.3961 80.9745 40.2514 69.2382C37.9661 60.7091 41.02 52.0072 47.3643 46.6812C49.7499 44.6785 52.6007 43.1532 55.8078 42.2938C67.544 39.1491 79.6074 46.1139 82.7522 57.8502Z" fill="#B9BED0"/>
<path d="M84.2842 56.5646C81.1395 44.8283 69.0761 37.8635 57.3398 41.0082L55.8078 42.2938C67.544 39.1491 79.6074 46.1139 82.7522 57.8502L84.2842 56.5646Z" fill="url(#paint5_linear_14624_14450)"/>
<path d="M77.1714 79.1217C83.5157 73.7957 86.5696 65.0937 84.2842 56.5646L82.7522 57.8502C85.0375 66.3793 81.9836 75.0813 75.6393 80.4072L77.1714 79.1217Z" fill="url(#paint6_linear_14624_14450)"/>
<path d="M57.3398 41.0082C54.1327 41.8675 51.2819 43.3929 48.8963 45.3956L47.3719 46.6748C49.7559 44.6753 52.6041 43.1523 55.8078 42.2938L57.3398 41.0082Z" fill="url(#paint7_linear_14624_14450)"/>
<path d="M68.7279 83.5091C71.9316 82.6507 74.7797 81.1277 77.1638 79.1282L75.6393 80.4072C73.2537 82.4099 70.4029 83.9352 67.1958 84.7946L68.7279 83.5091Z" fill="#040506"/>
<path d="M48.8963 45.3956C42.552 50.7216 39.4981 59.4236 41.7835 67.9527L40.2514 69.2382C37.9661 60.7091 41.02 52.0072 47.3643 46.6812L48.8963 45.3956Z" fill="#040506"/>
<path d="M41.7835 67.9527C44.9282 79.689 56.9916 86.6538 68.7279 83.5091L67.1958 84.7946C55.4596 87.9393 43.3961 80.9745 40.2514 69.2382L41.7835 67.9527Z" fill="#040506"/>
<path d="M84.2842 56.5646C87.4289 68.3008 80.4641 80.3644 68.7279 83.5091C56.9916 86.6538 44.9282 79.689 41.7835 67.9527C38.6388 56.2165 45.6036 44.1529 57.3398 41.0082C69.0761 37.8635 81.1395 44.8283 84.2842 56.5646Z" fill="#161922"/>
<path d="M71.4647 58.5875C72.9581 59.0094 73.4719 60.9271 72.3895 62.0392L60.2129 74.5508C59.1305 75.663 57.2637 75.1355 56.8527 73.6014L52.2282 56.3427C52.0022 55.4991 52.3095 54.6991 52.8804 54.2199C53.3476 53.8277 53.9913 53.6505 54.6635 53.8404L71.4647 58.5875Z" fill="white"/>
<path d="M72.2306 57.9445C73.7241 58.3665 74.2379 60.2841 73.1555 61.3963L72.3895 62.0392C73.4719 60.9271 72.9581 59.0094 71.4647 58.5875L72.2306 57.9445Z" fill="url(#paint8_linear_14624_14450)"/>
<path d="M72.2306 57.9445L55.4296 53.1974L54.6635 53.8404L71.4647 58.5875L72.2306 57.9445Z" fill="url(#paint9_linear_14624_14450)"/>
<path d="M60.9789 73.9081L73.1555 61.3963L72.3895 62.0392L60.2129 74.5508L60.9789 73.9081Z" fill="url(#paint10_linear_14624_14450)"/>
<path d="M55.4296 53.1974C54.7574 53.0075 54.1136 53.1849 53.6464 53.5771L52.8804 54.2199C53.3476 53.8277 53.9913 53.6505 54.6635 53.8404L55.4296 53.1974Z" fill="url(#paint11_linear_14624_14450)"/>
<path d="M53.6464 53.5771C53.0756 54.0562 52.7682 54.8563 52.9943 55.6999L52.2282 56.3427C52.0022 55.4991 52.3095 54.6991 52.8804 54.2199L53.6464 53.5771Z" fill="#040506"/>
<path d="M52.9943 55.6999L57.6188 72.9586L56.8527 73.6014L52.2282 56.3427L52.9943 55.6999Z" fill="#040506"/>
<path d="M60.9789 73.9081C60.8795 74.0102 60.7735 74.0985 60.6627 74.1735L60.2129 74.5508C59.1305 75.663 57.2637 75.1355 56.8527 73.6014L57.6188 72.9586C57.9921 74.3518 59.566 74.9149 60.6627 74.1735L60.9789 73.9081Z" fill="#040506"/>
<path d="M72.2306 57.9445C73.7241 58.3665 74.2379 60.2841 73.1555 61.3963L60.9789 73.9081C59.8966 75.0202 58.0298 74.4927 57.6188 72.9586L52.9943 55.6999C52.5832 54.1658 53.9362 52.7755 55.4296 53.1974L72.2306 57.9445Z" fill="#2B3040"/>
<path d="M25.4926 36.0321C25.3887 35.6443 25.5276 35.2486 25.8162 35.0065C25.9246 34.9156 26.0541 34.8464 26.1997 34.8074L70.6323 22.9017C71.1657 22.7588 71.7141 23.0753 71.857 23.6088C71.9609 23.9965 71.8221 24.392 71.5337 24.6341C71.4253 24.7252 71.2957 24.7945 71.1499 24.8335L26.7173 36.7392C26.1839 36.8822 25.6355 36.5656 25.4926 36.0321Z" fill="#EDEEF3"/>
<path d="M72.623 22.966C72.48 22.4325 71.9317 22.1159 71.3982 22.2589L70.6323 22.9017C71.1657 22.7588 71.7141 23.0753 71.857 23.6088L72.623 22.966Z" fill="url(#paint12_linear_14624_14450)"/>
<path d="M72.2997 23.9913C72.5881 23.7492 72.7269 23.3537 72.623 22.966L71.857 23.6088C71.9609 23.9965 71.8221 24.392 71.5337 24.6341L72.2997 23.9913Z" fill="url(#paint13_linear_14624_14450)"/>
<path d="M71.9159 24.1906C72.0616 24.1516 72.1914 24.0822 72.2997 23.9913L71.5337 24.6341C71.4253 24.7252 71.2957 24.7945 71.1499 24.8335L71.9159 24.1906Z" fill="#040506"/>
<path d="M71.3982 22.2589L26.9656 34.1644L26.1997 34.8074L70.6323 22.9017L71.3982 22.2589Z" fill="url(#paint14_linear_14624_14450)"/>
<path d="M27.4833 36.0963L71.9159 24.1906L71.1499 24.8335L26.7173 36.7392L27.4833 36.0963Z" fill="#040506"/>
<path d="M26.5822 34.3636C26.6906 34.2727 26.82 34.2034 26.9656 34.1644L26.1997 34.8074C26.0541 34.8464 25.9246 34.9156 25.8162 35.0065L26.5822 34.3636Z" fill="url(#paint15_linear_14624_14450)"/>
<path d="M26.2586 35.3893C26.1547 35.0016 26.2938 34.6057 26.5822 34.3636L25.8162 35.0065C25.5276 35.2486 25.3887 35.6443 25.4926 36.0321L26.2586 35.3893Z" fill="#040506"/>
<path d="M26.2586 35.3893C26.4016 35.9228 26.9499 36.2392 27.4833 36.0963L26.7173 36.7392C26.1839 36.8822 25.6355 36.5656 25.4926 36.0321L26.2586 35.3893Z" fill="#040506"/>
<path d="M26.2586 35.3893C26.1157 34.8558 26.4322 34.3073 26.9656 34.1644L71.3982 22.2589C71.9317 22.1159 72.48 22.4325 72.623 22.966C72.7659 23.4994 72.4494 24.0476 71.9159 24.1906L27.4833 36.0963C26.9499 36.2392 26.4016 35.9228 26.2586 35.3893Z" fill="#272C3A"/>
<path d="M33.4926 105.221C33.3887 104.833 33.5276 104.437 33.8162 104.195C33.9246 104.104 34.0541 104.035 34.1997 103.996L109.193 83.9015C109.727 83.7585 110.275 84.0751 110.418 84.6086C110.522 84.9962 110.383 85.3918 110.095 85.6339C109.986 85.7249 109.857 85.7942 109.711 85.8333L34.7173 105.928C34.1838 106.071 33.6355 105.754 33.4926 105.221Z" fill="#EDEEF3"/>
<path d="M111.184 83.9657C111.041 83.4323 110.493 83.1157 109.959 83.2586L109.193 83.9015C109.727 83.7585 110.275 84.0751 110.418 84.6086L111.184 83.9657Z" fill="url(#paint16_linear_14624_14450)"/>
<path d="M110.861 84.9911C111.149 84.749 111.288 84.3534 111.184 83.9657L110.418 84.6086C110.522 84.9962 110.383 85.3918 110.095 85.6339L110.861 84.9911Z" fill="url(#paint17_linear_14624_14450)"/>
<path d="M110.477 85.1906C110.623 85.1516 110.752 85.082 110.861 84.9911L110.095 85.6339C109.986 85.7249 109.857 85.7942 109.711 85.8333L110.477 85.1906Z" fill="#040506"/>
<path d="M109.959 83.2586L34.9656 103.353L34.1997 103.996L109.193 83.9015L109.959 83.2586Z" fill="url(#paint18_linear_14624_14450)"/>
<path d="M35.4833 105.285L110.477 85.1906L109.711 85.8333L34.7173 105.928L35.4833 105.285Z" fill="#040506"/>
<path d="M34.5822 103.552C34.6906 103.461 34.82 103.392 34.9656 103.353L34.1997 103.996C34.0541 104.035 33.9246 104.104 33.8162 104.195L34.5822 103.552Z" fill="url(#paint19_linear_14624_14450)"/>
<path d="M34.2586 104.578C34.1547 104.19 34.2938 103.794 34.5822 103.552L33.8162 104.195C33.5276 104.437 33.3887 104.833 33.4926 105.221L34.2586 104.578Z" fill="#040506"/>
<path d="M34.2586 104.578C34.4016 105.111 34.9499 105.428 35.4833 105.285L34.7173 105.928C34.1838 106.071 33.6355 105.754 33.4926 105.221L34.2586 104.578Z" fill="#040506"/>
<path d="M34.2586 104.578C34.1157 104.045 34.4322 103.496 34.9656 103.353L109.959 83.2586C110.493 83.1157 111.041 83.4323 111.184 83.9657C111.327 84.4992 111.01 85.0476 110.477 85.1906L35.4833 105.285C34.9499 105.428 34.4016 105.111 34.2586 104.578Z" fill="#272C3A"/>
<path d="M26.4433 39.6556C26.3393 39.2678 26.4783 38.872 26.7669 38.63C26.8753 38.5391 27.0047 38.4699 27.1504 38.4308L47.2151 33.0545C47.7485 32.9116 48.2969 33.2282 48.4398 33.7616C48.5437 34.1493 48.4049 34.5449 48.1165 34.787C48.0081 34.878 47.8785 34.9473 47.7327 34.9864L27.668 40.3627C27.1345 40.5056 26.5862 40.1891 26.4433 39.6556Z" fill="#EDEEF3"/>
<path d="M49.2058 33.1188C49.0628 32.5853 48.5145 32.2688 47.981 32.4117L47.2151 33.0545C47.7485 32.9116 48.2969 33.2282 48.4398 33.7616L49.2058 33.1188Z" fill="url(#paint20_linear_14624_14450)"/>
<path d="M48.8825 34.1442C49.1709 33.9021 49.3096 33.5065 49.2058 33.1188L48.4398 33.7616C48.5437 34.1493 48.4049 34.5449 48.1165 34.787L48.8825 34.1442Z" fill="url(#paint21_linear_14624_14450)"/>
<path d="M48.4987 34.3434C48.6443 34.3044 48.7741 34.235 48.8825 34.1442L48.1165 34.787C48.0081 34.878 47.8785 34.9473 47.7327 34.9864L48.4987 34.3434Z" fill="#040506"/>
<path d="M47.981 32.4117L27.9163 37.7879L27.1504 38.4308L47.2151 33.0545L47.981 32.4117Z" fill="url(#paint22_linear_14624_14450)"/>
<path d="M28.434 39.7198L48.4987 34.3434L47.7327 34.9864L27.668 40.3627L28.434 39.7198Z" fill="#040506"/>
<path d="M27.5329 37.9872C27.6413 37.8963 27.7707 37.8269 27.9163 37.7879L27.1504 38.4308C27.0047 38.4699 26.8753 38.5391 26.7669 38.63L27.5329 37.9872Z" fill="url(#paint23_linear_14624_14450)"/>
<path d="M27.2093 39.0128C27.1054 38.6252 27.2445 38.2293 27.5329 37.9872L26.7669 38.63C26.4783 38.872 26.3393 39.2678 26.4433 39.6556L27.2093 39.0128Z" fill="#040506"/>
<path d="M27.2093 39.0128C27.3522 39.5463 27.9005 39.8627 28.434 39.7198L27.668 40.3627C27.1345 40.5056 26.5862 40.1891 26.4433 39.6556L27.2093 39.0128Z" fill="#040506"/>
<path d="M27.2093 39.0128C27.0664 38.4794 27.3828 37.9308 27.9163 37.7879L47.981 32.4117C48.5145 32.2688 49.0628 32.5853 49.2058 33.1188C49.3487 33.6523 49.0322 34.2005 48.4987 34.3434L28.434 39.7198C27.9005 39.8627 27.3522 39.5463 27.2093 39.0128Z" fill="#272C3A"/>
<path d="M53.2338 100.643C53.2338 101.566 52.817 102.391 52.1614 102.942C51.6401 103.379 50.9677 103.643 50.2338 103.643C48.5769 103.643 47.2338 102.3 47.2338 100.643C47.2338 99.7198 47.6505 98.8943 48.3061 98.344C48.8274 97.9063 49.4998 97.6428 50.2338 97.6428C51.8906 97.6428 53.2338 98.9859 53.2338 100.643Z" fill="#F3F4F7"/>
<path d="M53.9998 99.9999C53.9998 98.3431 52.6567 96.9999 50.9998 96.9999L50.2338 97.6428C51.8906 97.6428 53.2338 98.9859 53.2338 100.643L53.9998 99.9999Z" fill="url(#paint24_linear_14624_14450)"/>
<path d="M52.9274 102.299C53.583 101.748 53.9998 100.923 53.9998 99.9999L53.2338 100.643C53.2338 101.566 52.817 102.391 52.1614 102.942L52.9274 102.299Z" fill="url(#paint25_linear_14624_14450)"/>
<path d="M50.9998 96.9999C50.2659 96.9999 49.5934 97.2635 49.0721 97.7011L48.307 98.3432C48.8282 97.906 49.5003 97.6428 50.2338 97.6428L50.9998 96.9999Z" fill="url(#paint26_linear_14624_14450)"/>
<path d="M50.9998 103C51.7333 103 52.4053 102.737 52.9266 102.3L52.1614 102.942C51.6401 103.379 50.9677 103.643 50.2338 103.643L50.9998 103Z" fill="#040506"/>
<path d="M49.0721 97.7011C48.4165 98.2515 47.9998 99.077 47.9998 99.9999L47.2338 100.643C47.2338 99.7198 47.6505 98.8943 48.3061 98.344L49.0721 97.7011Z" fill="#040506"/>
<path d="M47.9998 99.9999C47.9998 101.657 49.343 103 50.9998 103L50.2338 103.643C48.5769 103.643 47.2338 102.3 47.2338 100.643L47.9998 99.9999Z" fill="#040506"/>
<path d="M53.9998 99.9999C53.9998 101.657 52.6567 103 50.9998 103C49.343 103 47.9998 101.657 47.9998 99.9999C47.9998 98.3431 49.343 96.9999 50.9998 96.9999C52.6567 96.9999 53.9998 98.3431 53.9998 99.9999Z" fill="#2B3040"/>
<path d="M23.9998 39.6428C23.9998 40.5657 23.583 41.3912 22.9274 41.9416C22.4061 42.3792 21.7337 42.6428 20.9998 42.6428C19.3429 42.6428 17.9998 41.2996 17.9998 39.6428C17.9998 38.7199 18.4165 37.8943 19.0721 37.344C19.5934 36.9063 20.2658 36.6428 20.9998 36.6428C22.6566 36.6428 23.9998 37.9859 23.9998 39.6428Z" fill="#F3F4F7"/>
<path d="M24.7658 38.9999C24.7658 37.3431 23.4227 35.9999 21.7658 35.9999L20.9998 36.6428C22.6566 36.6428 23.9998 37.9859 23.9998 39.6428L24.7658 38.9999Z" fill="url(#paint27_linear_14624_14450)"/>
<path d="M23.6934 41.2987C24.349 40.7484 24.7658 39.9229 24.7658 38.9999L23.9998 39.6428C23.9998 40.5657 23.583 41.3912 22.9274 41.9416L23.6934 41.2987Z" fill="url(#paint28_linear_14624_14450)"/>
<path d="M21.7658 35.9999C21.0319 35.9999 20.3594 36.2635 19.8381 36.7011L19.0729 37.3432C19.5942 36.906 20.2662 36.6428 20.9998 36.6428L21.7658 35.9999Z" fill="url(#paint29_linear_14624_14450)"/>
<path d="M21.7658 42C22.4993 42 23.1713 41.7367 23.6926 41.2995L22.9274 41.9416C22.4061 42.3792 21.7337 42.6428 20.9998 42.6428L21.7658 42Z" fill="#040506"/>
<path d="M19.8381 36.7011C19.1825 37.2515 18.7658 38.077 18.7658 38.9999L17.9998 39.6428C17.9998 38.7199 18.4165 37.8943 19.0721 37.344L19.8381 36.7011Z" fill="#040506"/>
<path d="M18.7658 38.9999C18.7658 40.6568 20.1089 42 21.7658 42L20.9998 42.6428C19.3429 42.6428 17.9998 41.2996 17.9998 39.6428L18.7658 38.9999Z" fill="#040506"/>
<path d="M24.7658 38.9999C24.7658 40.6568 23.4227 42 21.7658 42C20.1089 42 18.7658 40.6568 18.7658 38.9999C18.7658 37.3431 20.1089 35.9999 21.7658 35.9999C23.4227 35.9999 24.7658 37.3431 24.7658 38.9999Z" fill="#2B3040"/>
<path d="M116.136 14.9819C114.757 15.356 113.711 16.2523 113.109 17.3983C113.098 17.3686 113.089 17.3391 113.081 17.3099C113.073 17.2821 113.066 17.2544 113.059 17.2267C113.045 17.1699 113.031 17.1131 113.01 17.055C111.23 12.0231 105.745 9.04771 100.771 10.3965C96.9571 11.4307 94.5549 14.7066 94.4224 18.4422C93.8253 18.211 93.1722 18.1454 92.5452 18.3154C91.0092 18.7319 90.21 20.3245 90.7588 21.8752C90.8297 22.0756 90.9215 22.2704 91.0305 22.4489C90.1997 22.2696 89.3168 22.2662 88.4704 22.4957C85.67 23.2551 84.2127 26.1591 85.2131 28.9863C86.2136 31.8135 89.2911 33.4878 92.0914 32.7284L119.761 25.2251C122.561 24.4658 124.018 21.5617 123.018 18.7345C122.017 15.9074 118.94 14.2331 116.14 14.9925L116.136 14.9819Z" fill="#040506"/>
<path d="M117.349 13.6963C115.969 14.0703 114.924 14.9666 114.322 16.1127C114.311 16.0828 114.302 16.0532 114.294 16.0238C114.286 15.9961 114.279 15.9686 114.272 15.941C114.258 15.8844 114.244 15.8273 114.223 15.7694C112.442 10.7375 106.958 7.76207 101.984 9.11084C98.17 10.1451 95.7677 13.421 95.6353 17.1566C95.0381 16.9254 94.3851 16.8597 93.7581 17.0297C92.2221 17.4463 91.4229 19.0388 91.9716 20.5895C92.0426 20.79 92.1344 20.9847 92.2434 21.1633C91.4126 20.9839 90.5297 20.9806 89.6833 21.2101C86.8829 21.9695 85.4255 24.8735 86.426 27.7007C87.4264 30.5278 90.504 32.2021 93.3043 31.4427L120.973 23.9395C123.774 23.1801 125.231 20.2761 124.231 17.4489C123.23 14.6217 120.153 12.9475 117.352 13.7068L117.349 13.6963Z" fill="#272C3A"/>
<path d="M23.7074 100.67C22.9903 100.864 22.4467 101.33 22.1336 101.926C22.1281 101.911 22.1235 101.895 22.1193 101.88C22.1153 101.866 22.1116 101.851 22.108 101.837C22.1005 101.807 22.0931 101.778 22.0824 101.748C21.1566 99.1315 18.3051 97.5845 15.7192 98.2858C13.7363 98.8235 12.4874 100.527 12.4185 102.469C12.1081 102.349 11.7685 102.314 11.4426 102.403C10.644 102.619 10.2285 103.447 10.5138 104.254C10.5507 104.358 10.5984 104.459 10.6551 104.552C10.2232 104.459 9.76409 104.457 9.32406 104.576C7.86814 104.971 7.11044 106.481 7.63058 107.951C8.15072 109.421 9.75073 110.291 11.2066 109.896L25.5919 105.995C27.0478 105.6 27.8055 104.091 27.2854 102.621C26.7653 101.151 25.1653 100.28 23.7093 100.675L23.7074 100.67Z" fill="#040506"/>
<path d="M24.3373 100.001C23.6202 100.196 23.0766 100.662 22.7635 101.258C22.758 101.242 22.7534 101.227 22.7491 101.211C22.7451 101.197 22.7415 101.183 22.7379 101.168C22.7304 101.139 22.7229 101.109 22.7123 101.079C21.7865 98.463 18.9349 96.9161 16.3491 97.6173C14.3662 98.155 13.1173 99.8582 13.0484 101.8C12.738 101.68 12.3984 101.646 12.0725 101.734C11.2739 101.951 10.8584 102.779 11.1437 103.585C11.1805 103.689 11.2283 103.791 11.2849 103.883C10.853 103.79 10.394 103.788 9.95394 103.908C8.49803 104.303 7.74032 105.812 8.26046 107.282C8.7806 108.752 10.3806 109.623 11.8365 109.228L26.2218 105.327C27.6777 104.932 28.4354 103.422 27.9153 101.952C27.3951 100.482 25.7951 99.612 24.3392 100.007L24.3373 100.001Z" fill="#272C3A"/>
<defs>
<linearGradient id="paint0_linear_14624_14450" x1="-36.9499" y1="75.5726" x2="63.9432" y2="164.486" gradientUnits="userSpaceOnUse">
<stop stop-color="#BBBDD4"/>
<stop offset="0.5" stop-color="#718CAC"/>
<stop offset="1" stop-color="#8C9BB7"/>
</linearGradient>
<linearGradient id="paint1_linear_14624_14450" x1="-35.5626" y1="22.6197" x2="-8.96375" y2="139.576" gradientUnits="userSpaceOnUse">
<stop stop-color="#8C9BB7"/>
<stop offset="1" stop-color="#8C9BB7"/>
</linearGradient>
<linearGradient id="paint2_linear_14624_14450" x1="2.28749" y1="47.134" x2="22.5261" y2="107.607" gradientUnits="userSpaceOnUse">
<stop stop-color="#8C9BB7"/>
<stop offset="0.5" stop-color="#C1C3D9"/>
<stop offset="1" stop-color="#E3E1EE"/>
</linearGradient>
<linearGradient id="paint3_linear_14624_14450" x1="-27.6911" y1="187.742" x2="41.3604" y2="215.526" gradientUnits="userSpaceOnUse">
<stop stop-color="#BBBDD4"/>
<stop offset="1" stop-color="#BBBDD4"/>
</linearGradient>
<linearGradient id="paint4_linear_14624_14450" x1="-7.43585" y1="125.174" x2="10.4003" y2="140.618" gradientUnits="userSpaceOnUse">
<stop stop-color="#E3E1EE"/>
<stop offset="0.5" stop-color="#CFCFE2"/>
<stop offset="1" stop-color="#BBBDD4"/>
</linearGradient>
<linearGradient id="paint5_linear_14624_14450" x1="-40.9428" y1="70.996" x2="72.365" y2="167.867" gradientUnits="userSpaceOnUse">
<stop stop-color="#BBBDD4"/>
<stop offset="0.5" stop-color="#718CAC"/>
<stop offset="1" stop-color="#8C9BB7"/>
</linearGradient>
<linearGradient id="paint6_linear_14624_14450" x1="1.38304" y1="41.0729" x2="20.7792" y2="109.137" gradientUnits="userSpaceOnUse">
<stop stop-color="#8C9BB7"/>
<stop offset="0.5" stop-color="#C1C3D9"/>
<stop offset="1" stop-color="#E3E1EE"/>
</linearGradient>
<linearGradient id="paint7_linear_14624_14450" x1="-10.8918" y1="130.634" x2="13.5504" y2="149.864" gradientUnits="userSpaceOnUse">
<stop stop-color="#E3E1EE"/>
<stop offset="0.5" stop-color="#CFCFE2"/>
<stop offset="1" stop-color="#BBBDD4"/>
</linearGradient>
<linearGradient id="paint8_linear_14624_14450" x1="-28.1407" y1="37.3615" x2="9.54675" y2="131.487" gradientUnits="userSpaceOnUse">
<stop stop-color="#A19B9C"/>
<stop offset="0.5" stop-color="#A29C9D"/>
<stop offset="1" stop-color="#EEEBEA"/>
</linearGradient>
<linearGradient id="paint9_linear_14624_14450" x1="-43.0633" y1="126.987" x2="89.9497" y2="183.448" gradientUnits="userSpaceOnUse">
<stop stop-color="#A19B9C"/>
<stop offset="1" stop-color="#A19B9C"/>
</linearGradient>
<linearGradient id="paint10_linear_14624_14450" x1="5.45844" y1="93.478" x2="14.1711" y2="105.729" gradientUnits="userSpaceOnUse">
<stop stop-color="#EEEBEA"/>
<stop offset="1" stop-color="#EEEBEA"/>
</linearGradient>
<linearGradient id="paint11_linear_14624_14450" x1="-19.2136" y1="149.721" x2="28.0766" y2="177.923" gradientUnits="userSpaceOnUse">
<stop stop-color="#E8E6E5"/>
<stop offset="0.5" stop-color="#C8C5C5"/>
<stop offset="1" stop-color="#A19B9C"/>
</linearGradient>
<linearGradient id="paint12_linear_14624_14450" x1="-24.711" y1="88.0396" x2="41.5194" y2="151.751" gradientUnits="userSpaceOnUse">
<stop stop-color="#A2A0C4"/>
<stop offset="0.5" stop-color="#597F97"/>
<stop offset="1" stop-color="#7085A6"/>
</linearGradient>
<linearGradient id="paint13_linear_14624_14450" x1="3.90879" y1="65.6982" x2="22.7271" y2="104.348" gradientUnits="userSpaceOnUse">
<stop stop-color="#7085A6"/>
<stop offset="0.5" stop-color="#ABA7C9"/>
<stop offset="1" stop-color="#D1C6DF"/>
</linearGradient>
<linearGradient id="paint14_linear_14624_14450" x1="-28.4894" y1="193.302" x2="43.1105" y2="220.803" gradientUnits="userSpaceOnUse">
<stop stop-color="#A2A0C4"/>
<stop offset="1" stop-color="#A2A0C4"/>
</linearGradient>
<linearGradient id="paint15_linear_14624_14450" x1="-0.991125" y1="117.269" x2="6.71051" y2="125.073" gradientUnits="userSpaceOnUse">
<stop stop-color="#D1C6DF"/>
<stop offset="0.5" stop-color="#BCB4D3"/>
<stop offset="1" stop-color="#A2A0C4"/>
</linearGradient>
<linearGradient id="paint16_linear_14624_14450" x1="-24.711" y1="88.0396" x2="41.5195" y2="151.751" gradientUnits="userSpaceOnUse">
<stop stop-color="#A0A1C4"/>
<stop offset="0.5" stop-color="#597398"/>
<stop offset="1" stop-color="#7180A6"/>
</linearGradient>
<linearGradient id="paint17_linear_14624_14450" x1="3.90879" y1="65.6982" x2="22.7271" y2="104.348" gradientUnits="userSpaceOnUse">
<stop stop-color="#7180A6"/>
<stop offset="0.5" stop-color="#A6A6C8"/>
<stop offset="1" stop-color="#C9C5DE"/>
</linearGradient>
<linearGradient id="paint18_linear_14624_14450" x1="-28.7255" y1="195.048" x2="43.6322" y2="222.45" gradientUnits="userSpaceOnUse">
<stop stop-color="#A0A1C4"/>
<stop offset="1" stop-color="#A0A1C4"/>
</linearGradient>
<linearGradient id="paint19_linear_14624_14450" x1="-0.991175" y1="117.269" x2="6.71053" y2="125.074" gradientUnits="userSpaceOnUse">
<stop stop-color="#C9C5DE"/>
<stop offset="0.5" stop-color="#B5B3D2"/>
<stop offset="1" stop-color="#A0A1C4"/>
</linearGradient>
<linearGradient id="paint20_linear_14624_14450" x1="-24.711" y1="88.0396" x2="41.5195" y2="151.751" gradientUnits="userSpaceOnUse">
<stop stop-color="#A2A0C4"/>
<stop offset="0.5" stop-color="#597F97"/>
<stop offset="1" stop-color="#7085A6"/>
</linearGradient>
<linearGradient id="paint21_linear_14624_14450" x1="3.90879" y1="65.6982" x2="22.7271" y2="104.348" gradientUnits="userSpaceOnUse">
<stop stop-color="#7085A6"/>
<stop offset="0.5" stop-color="#ABA7C9"/>
<stop offset="1" stop-color="#D1C6DF"/>
</linearGradient>
<linearGradient id="paint22_linear_14624_14450" x1="-27.8048" y1="188.503" x2="41.6083" y2="216.252" gradientUnits="userSpaceOnUse">
<stop stop-color="#A2A0C4"/>
<stop offset="1" stop-color="#A2A0C4"/>
</linearGradient>
<linearGradient id="paint23_linear_14624_14450" x1="-0.991125" y1="117.269" x2="6.71051" y2="125.073" gradientUnits="userSpaceOnUse">
<stop stop-color="#D1C6DF"/>
<stop offset="0.5" stop-color="#BCB4D3"/>
<stop offset="1" stop-color="#A2A0C4"/>
</linearGradient>
<linearGradient id="paint24_linear_14624_14450" x1="-34.9559" y1="54.8834" x2="41.8613" y2="157.682" gradientUnits="userSpaceOnUse">
<stop stop-color="#939CB7"/>
<stop offset="1" stop-color="#939CB7"/>
</linearGradient>
<linearGradient id="paint25_linear_14624_14450" x1="5.45844" y1="62.5808" x2="24.3313" y2="104.361" gradientUnits="userSpaceOnUse">
<stop stop-color="#939CB7"/>
<stop offset="1" stop-color="#CFCFE4"/>
</linearGradient>
<linearGradient id="paint26_linear_14624_14450" x1="-15.1088" y1="138.99" x2="18.6055" y2="162.262" gradientUnits="userSpaceOnUse">
<stop stop-color="#CFCFE4"/>
<stop offset="1" stop-color="#939CB7"/>
</linearGradient>
<linearGradient id="paint27_linear_14624_14450" x1="-34.9559" y1="54.8834" x2="41.8613" y2="157.682" gradientUnits="userSpaceOnUse">
<stop stop-color="#939CB7"/>
<stop offset="1" stop-color="#939CB7"/>
</linearGradient>
<linearGradient id="paint28_linear_14624_14450" x1="5.45844" y1="62.5808" x2="24.3313" y2="104.361" gradientUnits="userSpaceOnUse">
<stop stop-color="#939CB7"/>
<stop offset="1" stop-color="#CFCDE3"/>
</linearGradient>
<linearGradient id="paint29_linear_14624_14450" x1="-15.1088" y1="138.99" x2="18.6055" y2="162.262" gradientUnits="userSpaceOnUse">
<stop stop-color="#CFCDE3"/>
<stop offset="1" stop-color="#939CB7"/>
</linearGradient>
</defs>
</svg>
