<svg viewBox="0 0 24 24" xmlns="http://www.w3.org/2000/svg">
<path fill-rule="evenodd" clip-rule="evenodd" d="M2 5C2 3.34315 3.34315 2 5 2H8C9.65685 2 11 3.34315 11 5V8C11 9.65685 9.65685 11 8 11H5C3.34315 11 2 9.65685 2 8V5ZM5 4H8C8.55228 4 9 4.44772 9 5V8C9 8.55228 8.55228 9 8 9H5C4.44772 9 4 8.55228 4 8V5C4 4.44772 4.44772 4 5 4Z"/>
<path fill-rule="evenodd" clip-rule="evenodd" d="M2 16C2 14.3431 3.34315 13 5 13H8C9.65685 13 11 14.3431 11 16V19C11 20.6569 9.65685 22 8 22H5C3.34315 22 2 20.6569 2 19V16ZM5 15H8C8.55228 15 9 15.4477 9 16V19C9 19.5523 8.55228 20 8 20H5C4.44772 20 4 19.5523 4 19V16C4 15.4477 4.44772 15 5 15Z"/>
<path fill-rule="evenodd" clip-rule="evenodd" d="M16 2C14.3431 2 13 3.34315 13 5V8C13 9.65685 14.3431 11 16 11H19C20.6569 11 22 9.65685 22 8V5C22 3.34315 20.6569 2 19 2H16ZM19 4H16C15.4477 4 15 4.44772 15 5V8C15 8.55228 15.4477 9 16 9H19C19.5523 9 20 8.55228 20 8V5C20 4.44772 19.5523 4 19 4Z"/>
<path fill-rule="evenodd" clip-rule="evenodd" d="M13 16C13 14.3431 14.3431 13 16 13H19C20.6569 13 22 14.3431 22 16V19C22 20.6569 20.6569 22 19 22H16C14.3431 22 13 20.6569 13 19V16ZM16 15H19C19.5523 15 20 15.4477 20 16V19C20 19.5523 19.5523 20 19 20H16C15.4477 20 15 19.5523 15 19V16C15 15.4477 15.4477 15 16 15Z"/>
</svg>
