<svg viewBox="0 0 24 24" xmlns="http://www.w3.org/2000/svg">
<path d="M16.166 17.7882C15.8581 17.0276 15.1103 16.5286 14.2786 16.5286H10.014C9.17856 16.5286 8.42831 17.0319 8.12287 17.7973L7.55151 19.2291C7.36593 19.6942 6.91008 20 6.4025 20C5.52235 20 4.92494 19.1192 5.26232 18.319L10.3849 6.16892C10.6833 5.46126 11.3851 5 12.1635 5C12.941 5 13.6423 5.46034 13.9412 6.16695L19.0691 18.2913C19.413 19.1043 18.8061 20 17.9115 20C17.3982 20 16.9367 19.692 16.7467 19.2226L16.166 17.7882ZM14.044 14.3429C14.4029 14.3429 14.6486 13.9863 14.516 13.658L12.6164 8.95792C12.4463 8.53711 11.8409 8.53788 11.6719 8.95913L9.78675 13.6592C9.65514 13.9874 9.90082 14.3429 10.2592 14.3429H14.044Z" />
</svg>
