<svg viewBox="0 0 64 64" fill="none" xmlns="http://www.w3.org/2000/svg">
<path d="M38.9626 35.9422C38.8811 35.4294 39.0422 34.9071 39.3885 34.5472L41.8737 31.9638C43.459 30.3158 42.5337 27.559 40.2779 27.2096L36.9861 26.6997C36.517 26.627 36.1012 26.3121 35.8846 25.844L34.5538 22.9684C33.5449 20.7886 30.457 20.7882 29.4477 22.9678L28.1161 25.8432C27.8993 26.3119 27.4826 26.6269 27.0153 26.6997L23.7219 27.2098C21.466 27.5592 20.5406 30.3159 22.1259 31.9639L24.611 34.5472C24.9572 34.907 25.1194 35.4299 25.0367 35.9438L24.4835 39.3844C24.1085 41.716 26.5807 43.4526 28.6354 42.3008L31.3237 40.7939C31.7472 40.5565 32.2521 40.5565 32.6751 40.7938L35.364 42.3014C37.4187 43.4533 39.8911 41.7167 39.5162 39.385L38.9626 35.9422Z" fill="#00304D" fill-opacity="0.25"/>
<path fill-rule="evenodd" clip-rule="evenodd" d="M50.99 13.6569L45.0096 7.67647C43.5094 6.17618 41.4745 5.33333 39.3528 5.33333H18.6665C14.2482 5.33333 10.6665 8.91505 10.6665 13.3333V50.6667C10.6665 55.0849 14.2482 58.6667 18.6665 58.6667H45.3332C49.7514 58.6667 53.3332 55.0849 53.3332 50.6667V19.3137C53.3332 17.192 52.4903 15.1571 50.99 13.6569ZM47.9998 50.6667C47.9998 52.1394 46.8059 53.3333 45.3332 53.3333H18.6665C17.1937 53.3333 15.9998 52.1394 15.9998 50.6667V13.3333C15.9998 11.8606 17.1937 10.6667 18.6665 10.6667H37.3332V16C37.3332 18.9455 39.721 21.3333 42.6665 21.3333H47.9998V50.6667ZM42.6665 16V12.8758L45.7907 16H42.6665Z" fill="#00304D" fill-opacity="0.25"/>
</svg>
