<svg viewBox="0 0 24 24" xmlns="http://www.w3.org/2000/svg">
<path d="M14.3265 13.7796C14.7093 14.159 15.33 14.159 15.7129 13.7796C16.0957 13.4002 16.0957 12.7852 15.7129 12.4058C15.7187 12.4116 15.7184 12.4109 15.7133 12.4018L15.7133 12.4018C15.698 12.3741 15.64 12.2689 15.584 12.0331C15.5181 11.7556 15.4801 11.4029 15.4801 11.0321C15.4801 10.6612 15.5181 10.3086 15.584 10.031C15.64 9.79521 15.698 9.69003 15.7133 9.66232C15.7184 9.65317 15.7187 9.65247 15.7129 9.65829C16.0957 9.27893 16.0956 8.66391 15.7128 8.28457C15.33 7.90523 14.7093 7.90521 14.3265 8.28452C14.3323 8.2787 14.3316 8.27908 14.3224 8.28408C14.2944 8.29922 14.1883 8.35671 13.9503 8.4122C13.6702 8.47749 13.3144 8.51516 12.9401 8.51516C12.5658 8.51516 12.2099 8.47749 11.9298 8.4122C11.6918 8.35671 11.5857 8.29923 11.5577 8.28408L11.5577 8.28408C11.5485 8.27908 11.5478 8.2787 11.5537 8.28452C11.1708 7.90516 10.5501 7.90516 10.1673 8.28452C9.78442 8.66387 9.78442 9.27893 10.1673 9.65829C10.5375 10.0252 11.0608 10.2054 11.4808 10.3034C11.7017 10.3549 11.9352 10.3927 12.1733 10.4181L8.28713 14.3417C7.90429 14.7211 7.90429 15.3361 8.28713 15.7155C8.66998 16.0948 9.29069 16.0948 9.67353 15.7155L13.5597 11.7919C13.5853 12.0277 13.6235 12.2592 13.6755 12.4781C13.7743 12.8942 13.9562 13.4127 14.3265 13.7796Z"/>
</svg>
