<svg width="200" height="200" viewBox="0 0 200 200" fill="none" xmlns="http://www.w3.org/2000/svg">
<path d="M100.81 65.5253C101.386 67.1962 102.846 68.6175 104.056 68.7135C105.266 68.8096 105.785 67.5227 105.189 65.8518C104.594 64.1808 103.153 62.7595 101.943 62.6635C100.733 62.5675 100.215 63.8543 100.81 65.5253Z" fill="#6B89F6"/>
<path d="M59.213 31.4095C60.7879 35.9231 64.7445 39.7836 68.0288 40.014C71.3131 40.2445 72.696 36.7874 71.121 32.2738C69.5461 27.7603 65.5896 23.8998 62.3052 23.6693C59.0209 23.4389 57.6381 26.896 59.213 31.4095Z" fill="#FFC000"/>
<path d="M44.0556 56.4106C47.071 58.1584 49.5103 62.3838 49.5103 65.8602C49.5103 69.3365 47.0518 70.7386 44.0172 68.9908C41.0018 67.243 38.5626 63.0176 38.5626 59.5412C38.5626 56.0649 41.021 54.6628 44.0556 56.4106Z" fill="#E0E7EB"/>
<path d="M41.4419 151.424V160.821C41.4419 161.721 42.179 162.454 43.0754 162.454H129.381C130.282 162.454 131.014 161.721 131.014 160.821V151.424H41.4464H41.4419Z" fill="url(#paint0_linear_6976_8683)"/>
<path d="M131.01 99.5374C131.01 98.641 130.277 97.9038 129.376 97.9038H43.0709C42.1745 97.9038 41.4374 98.6364 41.4374 99.5374V151.424H131.01V99.5374Z" fill="url(#paint1_linear_6976_8683)"/>
<path d="M101.82 162.454H71.0096V171.914H101.82V162.454Z" fill="url(#paint2_linear_6976_8683)"/>
<path d="M108.8 171.914H63.6063V176.341H108.8V171.914Z" fill="url(#paint3_linear_6976_8683)"/>
<path d="M101.82 162.454H71.0096V165.871H101.82V162.454Z" fill="#ADC8D8"/>
<path d="M126.396 102.563H46.0696V146.637H126.396V102.563Z" fill="url(#paint4_linear_6976_8683)"/>
<path d="M77.7122 111.209L72.1245 116.801L66.5322 111.209L64.298 113.448L69.8857 119.035L64.298 124.623L66.5322 126.862L72.1245 121.269L77.7122 126.862L79.9464 124.623L74.3586 119.035L79.9464 113.448L77.7122 111.209Z" fill="#98BACD"/>
<path d="M108.154 113.448L105.919 111.209L100.327 116.801L94.7393 111.209L92.5051 113.448L98.0929 119.035L92.5051 124.623L94.7393 126.862L100.327 121.269L105.919 126.862L108.154 124.623L102.566 119.035L108.154 113.448Z" fill="#98BACD"/>
<path d="M98.2022 140.517C86.3714 132.349 74.3905 140.435 74.2722 140.517L72.7206 138.269C72.8571 138.174 86.3942 129.041 99.7538 138.269L98.2022 140.517Z" fill="#98BACD"/>
<path d="M159.617 78.6334H119.12C118.114 78.6334 117.3 79.4479 117.3 80.4535V106.608C117.3 107.614 118.114 108.429 119.12 108.429H123.807L119.193 117.174L134.764 108.429H159.617C160.623 108.429 161.437 107.614 161.437 106.608V80.4535C161.437 79.4479 160.623 78.6334 159.617 78.6334Z" fill="url(#paint5_linear_6976_8683)"/>
<defs>
<linearGradient id="paint0_linear_6976_8683" x1="86.5863" y1="151.424" x2="86.5442" y2="162.382" gradientUnits="userSpaceOnUse">
<stop stop-color="#F6F9FA"/>
<stop offset="1" stop-color="#E3EDF2"/>
</linearGradient>
<linearGradient id="paint1_linear_6976_8683" x1="86.5818" y1="97.9038" x2="85.5894" y2="151.057" gradientUnits="userSpaceOnUse">
<stop stop-color="#F6F9FA"/>
<stop offset="1" stop-color="#E3EDF2"/>
</linearGradient>
<linearGradient id="paint2_linear_6976_8683" x1="86.4922" y1="162.527" x2="86.4779" y2="171.823" gradientUnits="userSpaceOnUse">
<stop stop-color="#ADC8D8"/>
<stop offset="1" stop-color="#DFEAF1"/>
</linearGradient>
<linearGradient id="paint3_linear_6976_8683" x1="86.3838" y1="171.914" x2="86.3703" y2="176.313" gradientUnits="userSpaceOnUse">
<stop stop-color="#F6F9FA"/>
<stop offset="1" stop-color="#E3EDF2"/>
</linearGradient>
<linearGradient id="paint4_linear_6976_8683" x1="88.1605" y1="146.637" x2="100.188" y2="106.768" gradientUnits="userSpaceOnUse">
<stop stop-color="#E3EDF2"/>
<stop offset="1" stop-color="#DBE6EC"/>
</linearGradient>
<linearGradient id="paint5_linear_6976_8683" x1="140.428" y1="117.174" x2="155.268" y2="86.2616" gradientUnits="userSpaceOnUse">
<stop stop-color="#E3EDF2"/>
<stop offset="1" stop-color="#DBE6EC"/>
</linearGradient>
</defs>
</svg>
