<svg width="200" height="200" viewBox="0 0 259 288" fill="none" xmlns="http://www.w3.org/2000/svg">
<path d="M183.481 81.8668C184.057 83.5378 185.517 84.959 186.727 85.0551C187.937 85.1511 188.455 83.8643 187.86 82.1933C187.264 80.5224 185.824 79.1011 184.614 79.005C183.404 78.909 182.885 80.1958 183.481 81.8668Z" fill="#6B89F6"/>
<path d="M63.7263 79.7521C66.7417 81.4999 69.1809 85.7253 69.1809 89.2017C69.1809 92.6781 66.7225 94.0802 63.6879 92.3324C60.6724 90.5846 58.2332 86.3592 58.2332 82.8828C58.2332 79.4064 60.6917 78.0043 63.7263 79.7521Z" fill="#E0E7EB"/>
<g filter="url(#filter0_f_5203_14703)">
<circle cx="129.233" cy="116" r="75" fill="#F1FBFF"/>
</g>
<path d="M162.866 82.7157C162.063 79.7183 158.982 77.9395 155.984 78.7427C125.581 81.8136 109.073 86.16 80.5455 98.9565C77.5481 99.7596 75.7693 102.841 76.5725 105.838L76.6316 106.058C79.7025 136.461 84.0489 152.969 96.8453 181.497L96.9044 181.718C97.7076 184.715 100.789 186.494 103.786 185.691C134.189 182.62 150.697 178.273 179.225 165.477C182.222 164.674 184.001 161.593 183.198 158.595L183.139 158.375C180.068 127.972 175.721 111.464 162.925 82.9362L162.866 82.7157Z" fill="url(#paint0_linear_5203_14703)"/>
<path d="M162.613 144.834C161.79 142.624 159.702 140.787 156.23 139.219C152.144 137.375 149.201 136.739 146.968 137.22C144.179 137.82 142.979 139.969 141.709 142.244C141.579 142.476 141.447 142.712 141.311 142.951C141.233 143.089 141.091 143.259 140.684 143.346C139.501 143.601 136.11 143.219 126.689 137.801C122.604 135.45 119.5 133.368 117.464 131.613C115.441 129.869 114.468 128.416 114.862 127.726C114.997 127.489 115.132 127.257 115.265 127.028C116.433 125.014 117.536 123.112 117.121 120.773C116.68 118.289 114.636 115.864 110.495 112.909C107.291 110.619 104.585 109.752 102.224 110.261C99.019 110.951 97.3694 114.051 96.0441 116.543C95.8108 116.982 95.5901 117.396 95.3703 117.783C93.7296 120.662 95.3553 125.731 99.7187 131.343C104.445 137.422 111.852 143.534 120.574 148.553C136.096 157.483 148.671 159.13 154.723 157.828C157.169 157.301 158.896 156.258 159.719 154.812C159.941 154.421 160.185 154.017 160.444 153.59C161.942 151.117 163.806 148.039 162.613 144.834Z" fill="url(#paint1_linear_5203_14703)"/>
<path d="M76.468 103.391C75.3031 104.751 74.8069 106.644 75.3054 108.504L75.3645 108.725C78.4354 139.128 82.7818 155.636 95.5782 184.163L95.6373 184.384C96.4405 187.381 99.5214 189.16 102.519 188.357C132.922 185.286 149.43 180.94 177.958 168.143C180.129 167.561 181.661 165.784 182.035 163.709C181.323 164.54 180.362 165.172 179.225 165.477C150.697 178.273 134.189 182.62 103.786 185.691C100.788 186.494 97.7074 184.715 96.9043 181.718L96.8452 181.497C84.0488 152.969 79.7024 136.461 76.6314 106.058L76.5724 105.838C76.3511 105.012 76.3258 104.18 76.468 103.391Z" fill="url(#paint2_linear_5203_14703)"/>
<path d="M163.95 143.313C163.127 141.102 161.04 139.266 157.567 137.698C153.481 135.853 150.539 135.218 148.305 135.698C145.517 136.299 144.317 138.447 143.046 140.722C142.917 140.954 142.785 141.19 142.649 141.429C142.57 141.567 142.428 141.737 142.021 141.824C140.839 142.079 137.447 141.697 128.027 136.279C123.941 133.928 120.837 131.846 118.802 130.091C116.779 128.347 115.806 126.895 116.199 126.205C116.334 125.967 116.469 125.735 116.602 125.506C117.77 123.492 118.873 121.59 118.458 119.251C118.018 116.767 115.974 114.342 111.832 111.388C108.628 109.097 105.923 108.231 103.561 108.739C100.356 109.429 98.7068 112.53 97.3815 115.021C97.1482 115.46 96.9275 115.875 96.7077 116.262C95.067 119.14 96.6927 124.209 101.056 129.821C105.783 135.9 113.189 142.012 121.911 147.031C137.433 155.961 150.008 157.609 156.06 156.306C158.506 155.779 160.234 154.737 161.056 153.29C161.278 152.9 161.523 152.496 161.782 152.068C163.279 149.595 165.143 146.517 163.95 143.313Z" fill="white"/>
<path d="M162.864 143.613C162.041 141.402 159.953 139.566 156.481 137.998C152.395 136.153 149.452 135.518 147.219 135.998C144.43 136.599 143.23 138.747 141.96 141.022C141.83 141.254 141.698 141.49 141.562 141.729C141.484 141.867 141.341 142.037 140.935 142.124C139.752 142.379 136.361 141.997 126.94 136.579C122.854 134.228 119.751 132.146 117.715 130.391C115.692 128.647 114.719 127.195 115.113 126.505C115.248 126.267 115.383 126.035 115.515 125.806C116.683 123.792 117.786 121.89 117.372 119.551C116.931 117.067 114.887 114.642 110.746 111.688C107.541 109.397 104.836 108.531 102.474 109.039C99.2698 109.729 97.6201 112.83 96.2948 115.321C96.0615 115.76 95.8409 116.175 95.6211 116.562C93.9803 119.44 95.606 124.509 99.9695 130.121C104.696 136.2 112.103 142.312 120.825 147.331C136.347 156.261 148.922 157.909 154.974 156.606C157.419 156.079 159.147 155.037 159.97 153.59C160.192 153.2 160.436 152.796 160.695 152.368C162.192 149.895 164.057 146.817 162.864 143.613Z" fill="#F3F7FA"/>
<path d="M122.884 49.7511C124.459 54.2646 128.415 58.1251 131.699 58.3556C134.984 58.5861 136.367 55.1289 134.792 50.6154C133.217 46.1019 129.26 42.2414 125.976 42.0109C122.692 41.7804 121.309 45.2376 122.884 49.7511Z" fill="#FFC000"/>
<defs>
<filter id="filter0_f_5203_14703" x="-45.7668" y="-59" width="350" height="350" filterUnits="userSpaceOnUse" color-interpolation-filters="sRGB">
<feFlood flood-opacity="0" result="BackgroundImageFix"/>
<feBlend mode="normal" in="SourceGraphic" in2="BackgroundImageFix" result="shape"/>
<feGaussianBlur stdDeviation="50" result="effect1_foregroundBlur_5203_14703"/>
</filter>
<linearGradient id="paint0_linear_5203_14703" x1="132.453" y1="185.884" x2="177.247" y2="104.654" gradientUnits="userSpaceOnUse">
<stop stop-color="#E3EDF2"/>
<stop offset="1" stop-color="#DBE6EC"/>
</linearGradient>
<linearGradient id="paint1_linear_5203_14703" x1="100.658" y1="141.443" x2="157.386" y2="126.243" gradientUnits="userSpaceOnUse">
<stop stop-color="#ADC8D8"/>
<stop offset="1" stop-color="#DFEAF1"/>
</linearGradient>
<linearGradient id="paint2_linear_5203_14703" x1="76.1263" y1="145.889" x2="181.56" y2="145.889" gradientUnits="userSpaceOnUse">
<stop stop-color="#ADC8D8"/>
<stop offset="1" stop-color="#DFEAF1"/>
</linearGradient>
</defs>
</svg>
