<svg viewBox="0 0 32 32" xmlns="http://www.w3.org/2000/svg">
    <path d="M16 5c-6.075 0-11 4.925-11 11s4.925 11 11 11c0.552 0 1 0.448 1 1s-0.448 1-1 1c-7.18 0-13-5.82-13-13s5.82-13 13-13c7.18 0 13 5.82 13 13 0 0.552-0.448 1-1 1s-1-0.448-1-1c0-6.075-4.925-11-11-11z"></path>
    <path d="M16 14.333c-0.921 0-1.667 0.746-1.667 1.667s0.746 1.667 1.667 1.667c0.552 0 1 0.448 1 1s-0.448 1-1 1c-2.025 0-3.667-1.642-3.667-3.667s1.642-3.667 3.667-3.667c2.025 0 3.667 1.642 3.667 3.667 0 0.552-0.448 1-1 1s-1-0.448-1-1c0-0.921-0.746-1.667-1.667-1.667z"></path>
    <path d="M22.733 16c0.552 0 1 0.448 1 1v5.933l0.893-0.893c0.391-0.391 1.024-0.391 1.414 0s0.391 1.024 0 1.414l-2.586 2.586c-0.216 0.216-0.506 0.312-0.788 0.29-0.282 0.023-0.572-0.074-0.788-0.29l-2.586-2.586c-0.391-0.391-0.391-1.024 0-1.414s1.024-0.391 1.414 0l1.026 1.026v-6.067c0-0.552 0.448-1 1-1z"></path>
    <path d="M18.667 28.067c0-0.552 0.448-1 1-1h6c0.552 0 1 0.448 1 1s-0.448 1-1 1h-6c-0.552 0-1-0.448-1-1z"></path>
</svg>
