<svg viewBox="0 0 24 24" xmlns="http://www.w3.org/2000/svg">
    <path d="M12 4C7.58172 4 4 7.58172 4 12C4 16.4183 7.58172 20 12 20C12.5523 20 13 20.4477 13 21C13 21.5523 12.5523 22 12 22C6.47715 22 2 17.5228 2 12C2 6.47715 6.47715 2 12 2C17.5228 2 22 6.47715 22 12C22 12.5523 21.5523 13 21 13C20.4477 13 20 12.5523 20 12C20 7.58172 16.4183 4 12 4Z"/>
    <path fill-rule="evenodd" clip-rule="evenodd" d="M12 15C13.6569 15 15 13.6569 15 12C15 10.3431 13.6569 9 12 9C10.3431 9 9 10.3431 9 12C9 13.6569 10.3431 15 12 15ZM12 13C12.5523 13 13 12.5523 13 12C13 11.4477 12.5523 11 12 11C11.4477 11 11 11.4477 11 12C11 12.5523 11.4477 13 12 13Z"/>
    <path d="M17 13C17.5523 13 18 13.4477 18 14V17.5858L18.2929 17.2929C18.6834 16.9024 19.3166 16.9024 19.7071 17.2929C20.0976 17.6834 20.0976 18.3166 19.7071 18.7071L17.7071 20.7071C17.6304 20.7838 17.5442 20.8455 17.4524 20.892C17.3166 20.9611 17.1628 21 17 21C16.7238 21 16.4735 20.8877 16.2925 20.7067L14.2929 18.7071C13.9024 18.3166 13.9024 17.6834 14.2929 17.2929C14.6834 16.9024 15.3166 16.9024 15.7071 17.2929L16 17.5858V14C16 13.4477 16.4477 13 17 13Z"/>
</svg>
