<svg viewBox="0 0 24 24" xmlns="http://www.w3.org/2000/svg">
<path fill-rule="evenodd" clip-rule="evenodd" d="M2 4C2 2.89543 2.89543 2 4 2H20C21.1046 2 22 2.89543 22 4V6C22 7.10457 21.1046 8 20 8H4C2.89543 8 2 7.10457 2 6V4ZM20 4L4 4V6H20V4ZM2 18C2 16.8954 2.89543 16 4 16H20C21.1046 16 22 16.8954 22 18V20C22 21.1046 21.1046 22 20 22H4C2.89543 22 2 21.1046 2 20V18ZM20 18H4V20H20V18ZM4 9C2.89543 9 2 9.89543 2 11V13C2 14.1046 2.89543 15 4 15H20C21.1046 15 22 14.1046 22 13V11C22 9.89543 21.1046 9 20 9H4ZM4 11H20V13H4V11Z"/>
</svg>
