<svg viewBox="0 0 24 24" xmlns="http://www.w3.org/2000/svg">
<path fill-rule="evenodd" clip-rule="evenodd" d="M4 2C2.89543 2 2 2.89543 2 4V6C2 7.10457 2.89543 8 4 8H6C7.10457 8 8 7.10457 8 6V4C8 2.89543 7.10457 2 6 2H4ZM6 4H4L4 6H6V4Z"/>
<path fill-rule="evenodd" clip-rule="evenodd" d="M11 2C9.89543 2 9 2.89543 9 4V6C9 7.10457 9.89543 8 11 8H13C14.1046 8 15 7.10457 15 6V4C15 2.89543 14.1046 2 13 2H11ZM13 4H11V6H13V4Z"/>
<path fill-rule="evenodd" clip-rule="evenodd" d="M16 4C16 2.89543 16.8954 2 18 2H20C21.1046 2 22 2.89543 22 4V6C22 7.10457 21.1046 8 20 8H18C16.8954 8 16 7.10457 16 6V4ZM18 4H20V6H18V4Z"/>
<path fill-rule="evenodd" clip-rule="evenodd" d="M4 16C2.89543 16 2 16.8954 2 18V20C2 21.1046 2.89543 22 4 22H6C7.10457 22 8 21.1046 8 20V18C8 16.8954 7.10457 16 6 16H4ZM6 18H4L4 20H6V18Z"/>
<path fill-rule="evenodd" clip-rule="evenodd" d="M9 18C9 16.8954 9.89543 16 11 16H13C14.1046 16 15 16.8954 15 18V20C15 21.1046 14.1046 22 13 22H11C9.89543 22 9 21.1046 9 20V18ZM11 18H13V20H11V18Z"/>
<path fill-rule="evenodd" clip-rule="evenodd" d="M18 16C16.8954 16 16 16.8954 16 18V20C16 21.1046 16.8954 22 18 22H20C21.1046 22 22 21.1046 22 20V18C22 16.8954 21.1046 16 20 16H18ZM20 18H18V20H20V18Z"/>
<path fill-rule="evenodd" clip-rule="evenodd" d="M2 11C2 9.89543 2.89543 9 4 9H6C7.10457 9 8 9.89543 8 11V13C8 14.1046 7.10457 15 6 15H4C2.89543 15 2 14.1046 2 13V11ZM4 11H6V13H4L4 11Z"/>
<path fill-rule="evenodd" clip-rule="evenodd" d="M11 9C9.89543 9 9 9.89543 9 11V13C9 14.1046 9.89543 15 11 15H13C14.1046 15 15 14.1046 15 13V11C15 9.89543 14.1046 9 13 9H11ZM13 11H11V13H13V11Z"/>
<path fill-rule="evenodd" clip-rule="evenodd" d="M16 11C16 9.89543 16.8954 9 18 9H20C21.1046 9 22 9.89543 22 11V13C22 14.1046 21.1046 15 20 15H18C16.8954 15 16 14.1046 16 13V11ZM18 11H20V13H18V11Z"/>
</svg>
