<svg viewBox="0 0 24 24" xmlns="http://www.w3.org/2000/svg">
<path fill-rule="evenodd" clip-rule="evenodd" d="M8 5C8 6.30622 7.16519 7.41746 6 7.82929V8C6 9.10457 6.89543 10 8 10H16.1707C16.5825 8.83481 17.6938 8 19 8C20.6569 8 22 9.34315 22 11C22 12.6569 20.6569 14 19 14C17.6938 14 16.5825 13.1652 16.1707 12H8C7.27143 12 6.58835 11.8052 6 11.4649V15C6 16.6569 7.34315 18 9 18H16.1707C16.5825 16.8348 17.6938 16 19 16C20.6569 16 22 17.3431 22 19C22 20.6569 20.6569 22 19 22C17.6938 22 16.5825 21.1652 16.1707 20H9C6.23858 20 4 17.7614 4 15V7.82929C2.83481 7.41746 2 6.30622 2 5C2 3.34315 3.34315 2 5 2C6.65685 2 8 3.34315 8 5ZM5 6C5.55228 6 6 5.55228 6 5C6 4.44772 5.55228 4 5 4C4.44772 4 4 4.44772 4 5C4 5.55228 4.44772 6 5 6ZM19 12C19.5523 12 20 11.5523 20 11C20 10.4477 19.5523 10 19 10C18.4477 10 18 10.4477 18 11C18 11.5523 18.4477 12 19 12ZM20 19C20 19.5523 19.5523 20 19 20C18.4477 20 18 19.5523 18 19C18 18.4477 18.4477 18 19 18C19.5523 18 20 18.4477 20 19Z" />
</svg>
