<svg viewBox="0 0 24 24" xmlns="http://www.w3.org/2000/svg">
    <path d="M6.80057 10C6.80057 9.44772 7.24828 9 7.80057 9H15.8006C16.3529 9 16.8006 9.44772 16.8006 10C16.8006 10.5523 16.3529 11 15.8006 11H7.80057C7.24828 11 6.80057 10.5523 6.80057 10Z" />
    <path d="M7.80057 13C7.24828 13 6.80057 13.4477 6.80057 14C6.80057 14.5523 7.24828 15 7.80057 15H15.8006C16.3529 15 16.8006 14.5523 16.8006 14C16.8006 13.4477 16.3529 13 15.8006 13H7.80057Z" />
    <path fill-rule="evenodd" clip-rule="evenodd" d="M8.14679 21.3111C11.7353 22.7173 15.9725 21.9707 18.8721 19.0711C22.7774 15.1658 22.7774 8.83418 18.8721 4.92893C14.9669 1.02369 8.63523 1.02369 4.72999 4.92893C1.8304 7.82852 1.08371 12.0658 2.48994 15.6543C2.80317 16.4536 2.47136 18.8022 2.19386 20.3804C2.06811 21.0955 2.70553 21.7329 3.42067 21.6072C4.99883 21.3297 7.34746 20.9979 8.14679 21.3111ZM17.4579 6.34315C14.3337 3.21895 9.2684 3.21895 6.1442 6.34315C3.82673 8.66062 3.22542 12.0495 4.35207 14.9246C4.56351 15.4641 4.60444 16.0523 4.61426 16.4598C4.62536 16.9206 4.59836 17.4201 4.55559 17.9021C4.51104 18.4041 4.44558 18.9274 4.37297 19.4281C4.87368 19.3555 5.39692 19.29 5.89898 19.2455C6.38091 19.2027 6.88045 19.1757 7.34121 19.1868C7.74879 19.1966 8.33692 19.2375 8.8765 19.449C11.7516 20.5756 15.1404 19.9743 17.4579 17.6569C20.5821 14.5327 20.5821 9.46734 17.4579 6.34315Z" />
</svg>
