<svg viewBox="0 0 24 24" xmlns="http://www.w3.org/2000/svg">
<path d="M9.67353 10.2204C9.29069 9.84104 8.66998 9.84104 8.28713 10.2204C7.90429 10.5998 7.90429 11.2148 8.28713 11.5942C8.28126 11.5884 8.28165 11.5891 8.28668 11.5982L8.28668 11.5982C8.30197 11.6259 8.35999 11.7311 8.41598 11.9669C8.48189 12.2444 8.5199 12.5971 8.5199 12.9679C8.5199 13.3388 8.48188 13.6914 8.41598 13.969C8.35999 14.2048 8.30198 14.31 8.28669 14.3377C8.28165 14.3468 8.28126 14.3475 8.28713 14.3417C7.90434 14.7211 7.90435 15.3361 8.28718 15.7154C8.67001 16.0948 9.29069 16.0948 9.67353 15.7155C9.66766 15.7213 9.66837 15.7209 9.6776 15.7159C9.70556 15.7008 9.81172 15.6433 10.0497 15.5878C10.3298 15.5225 10.6856 15.4848 11.0599 15.4848C11.4342 15.4848 11.7901 15.5225 12.0702 15.5878C12.3082 15.6433 12.4143 15.7008 12.4423 15.7159L12.4423 15.7159C12.4515 15.7209 12.4522 15.7213 12.4463 15.7155C12.8292 16.0948 13.4499 16.0948 13.8327 15.7155C14.2156 15.3361 14.2156 14.7211 13.8327 14.3417C13.4625 13.9748 12.9392 13.7946 12.5192 13.6966C12.2983 13.6451 12.0648 13.6073 11.8267 13.5819L15.7129 9.65829C16.0957 9.27893 16.0957 8.66387 15.7129 8.28452C15.33 7.90516 14.7093 7.90516 14.3265 8.28452L10.4403 12.2081C10.4147 11.9723 10.3765 11.7408 10.3245 11.5219C10.2257 11.1058 10.0438 10.5873 9.67353 10.2204Z"/>
</svg>
